<svg version="1.1" id="Calque_1" xmlns="http://www.w3.org/2000/svg" xmlns:xlink="http://www.w3.org/1999/xlink" x="0px" y="0px"
	 viewBox="0 0 212 212" xml:space="preserve" style="fill: #ffbc00;">
<path d="M120.7,1C62.8-7.1,9.1,33.4,1,91.3C-7.1,149.2,33.4,202.9,91.3,211c5,0.7,9.9,1,14.8,1c52,0,97.5-38.4,104.9-91.3
	C219.1,62.8,178.6,9.1,120.7,1z M207,120.1c-7.8,55.7-59.5,94.7-115.2,86.9c-27-3.8-50.9-17.8-67.3-39.6C8.2,145.7,1.2,118.9,5,91.9
	C12.1,40.9,55.9,4,105.9,4c4.7,0,9.4,0.3,14.2,1c27,3.8,50.9,17.8,67.3,39.6C203.8,66.3,210.8,93.2,207,120.1z M147,106
	c0-22.6-18.4-41-41-41s-41,18.4-41,41s18.4,41,41,41S147,128.6,147,106z M106,143c-20.4,0-37-16.6-37-37s16.6-37,37-37
	s37,16.6,37,37S126.4,143,106,143z M48.1,110c0.8-0.3,1.6-0.9,2.2-1.6c0.7-0.8,1-1.9,1.1-3.3s-0.3-2.5-0.9-3.3
	c-0.6-0.8-1.3-1.4-2.1-1.8c-0.9-0.5-2-0.7-3.2-0.8L41,99l-0.1,4l4,0.1c0.4,0,0.8,0.1,1.1,0.2c0.6,0.2,1.1,0.6,1.1,1.5
	c0,0.4-0.1,0.6-0.3,0.8c-0.4,0.4-1,0.6-1.9,0.7L27.6,106c-0.4,0-0.8-0.1-1.1-0.2c-0.5-0.2-1.1-0.6-1.1-1.3c0-0.4,0.1-0.8,0.3-1
	c0.5-0.4,1-0.6,1.8-0.6l4,0.1l0.1-4l-4-0.1c-1.2,0-2.2,0.2-3.2,0.7c-0.8,0.3-1.6,0.9-2.2,1.7s-1,1.9-1.1,3.3c0,1.4,0.4,2.6,0.9,3.4
	c0.6,0.8,1.4,1.3,2.2,1.7c0.9,0.5,2,0.7,3.1,0.8l17.3,0.3C46.1,110.6,47.2,110.4,48.1,110z M53.9,88.1l-5.3-3l1.6-3.9l5.9,1.5
	l1.6-3.9l-28.9-6.9l-2,4.9L52.4,92L53.9,88.1z M44.7,82.8l-8.1-4.6l-0.7-0.4l0.1-0.2l0.7,0.2l9.1,2.3L44.7,82.8z M65.1,69.2l-9-8.5
	l0.8-0.8l10.6,6.9l3-3.1l-12.2-7.8c0.3-2-1.1-4.3-3.2-6.3c-4-3.8-7.7-4.2-11.2-0.5l-3,3.1l21.4,20.2L65.1,69.2z M53.2,57.9l-6.3-6
	c0.4-0.4,1-1,1.8-1.1c0.8-0.1,2,0.3,3.5,1.7s1.9,2.5,1.9,3.4C54.1,56.9,53.6,57.5,53.2,57.9z M80.7,57.1l-7-15.1l0.2-0.1l0.9,1.1
	l10.3,12.1l3.5-1.6L76.2,26.8l-3.6,1.7l7,15.1l-0.2,0.1l-0.9-1.1L68.2,30.5l-3.5,1.6l12.4,26.7L80.7,57.1z M107.3,50.8l-0.3-4.4
	l-5.5,0.4l-0.6-8.1l4-0.3l-0.3-4.7l-4,0.3l-0.5-7.7l5.5-0.4l-0.3-4.4l-9.9,0.7l2,29.3L107.3,50.8z M128.9,29.4l3.9,1.1l1.2-4.3
	l-12-3.2l-1.2,4.3l3.9,1.1l-6.5,24.1l4.2,1.1L128.9,29.4z M137.5,61.3c1.9,1.4,3.6,1.5,5.2,0.9s2.9-1.9,4-3.5
	c0.9-1.3,1.4-2.9,1.6-4.5c0.2-1.6,0.3-3.5,0.3-5.3c0-1.5,0-2.9,0.1-4.2s0.4-2.4,0.9-3.2c1-1.4,1.9-2.1,2.9-1.5
	c0.6,0.4,0.6,1.1,0.4,1.9c-0.3,0.8-0.8,1.8-1.4,2.5l3.7,2.1c0.9-1.3,1.9-3.1,2.1-4.9c0.2-1.8-0.4-3.5-2.6-5
	c-1.7-1.1-3.4-1.2-4.9-0.7c-1.5,0.6-2.8,1.8-3.7,3.1c-0.5,0.7-0.8,1.4-1.1,2.1c-0.5,1.5-0.8,3.2-0.9,4.9c-0.1,1.8-0.1,3.4-0.1,4.9
	c0,0.7-0.1,1.4-0.1,2.1c-0.1,1.3-0.4,2.5-0.9,3.3c-1.1,1.5-2.3,2.4-3.3,1.6c-0.8-0.5-0.8-1.3-0.5-2.3c0.3-0.9,0.9-2,1.7-3l-3.7-2.1
	c-1.3,1.8-2.3,3.6-2.5,5.5S135.3,59.7,137.5,61.3z M156.7,84.4c1.4,3.7,2.9,5.5,5.4,5.8c2.5,0.3,6-0.9,11.3-2.9s8.8-3.5,10.5-5.3
	c1.7-1.9,1.7-4.2,0.3-7.9l-1.2-3.2l-27.5,10.3L156.7,84.4z M180.5,76.5c0.5,1.4,0.7,2.2-0.5,3.1c-0.6,0.4-1.5,1-2.8,1.5
	c-1.3,0.5-3.1,1.2-5.3,2s-4,1.5-5.3,2c-1.3,0.5-2.4,0.7-3.1,0.7c-1.5,0.1-1.9-0.6-2.5-2L180.5,76.5z M161.1,111.1l4.4-0.1l-0.1-5.6
	l8.1-0.1l0.1,4l4.7-0.1l-0.1-4l7.7-0.1l0.1,5.6l4.4-0.1l-0.2-9.9l-29.4,0.5L161.1,111.1z M65.1,142.2l-13.9,8.5l-1.1,0.7l-0.2-0.2
	l0.9-0.9L62,138.4l-2.6-3.3l-20.1,22l2.7,3.4l25.7-15L65.1,142.2z M78.8,153c-1.2-0.7-2.4-0.9-3.4-0.8c-1,0.1-1.8,0.5-2.6,1.1
	c-0.8,0.6-1.6,1.4-2.2,2.4l-8.7,15c-0.6,1.1-0.9,2.1-1,3.1c-0.1,0.9,0,1.8,0.4,2.7c0.4,1,1.2,1.8,2.4,2.6c1.2,0.7,2.4,1,3.4,0.8
	c1-0.1,1.9-0.5,2.6-1c0.8-0.6,1.6-1.4,2.2-2.4l8.7-15c0.5-1,0.9-2.1,1-3.1c0.1-0.9,0-1.8-0.4-2.8C80.7,154.6,80,153.7,78.8,153z
	 M76.8,159.2l-8.7,15c-0.2,0.4-0.4,0.7-0.7,0.9c-0.4,0.4-1,0.7-1.6,0.3c-0.3-0.2-0.5-0.4-0.6-0.7c-0.1-0.6,0-1.2,0.4-1.9l8.7-15
	c0.2-0.3,0.4-0.6,0.7-0.9c0.4-0.4,1-0.7,1.7-0.3c0.3,0.2,0.5,0.4,0.6,0.7C77.3,157.9,77.2,158.5,76.8,159.2z M95.7,169.2l-0.2,0.3
	l-0.1,0l-0.1-0.3l-0.6-9.6l-4.2-0.7l1.6,17.4l-2,12.4l4.3,0.7l2-12.4l7.1-15.9l-4.2-0.7L95.7,169.2z M113.8,160.1l1.1,29.7l4.1-0.8
	l-0.3-6l4.1-0.8l1.9,5.7l4.1-0.8l-9.9-28L113.8,160.1z M118.4,178.4l-0.5-9.3l0-0.8l0.2,0l0.3,0.7l3,8.9L118.4,178.4z M142.8,164.8
	l2,3.1l1.5-0.9l2.9,4.5c0.2,0.4,0.4,0.7,0.4,1c0.2,0.6,0.1,1.2-0.5,1.6c-0.3,0.2-0.6,0.2-0.9,0.2c-0.6-0.2-1-0.5-1.5-1.2l-9.5-14.9
	c-0.2-0.3-0.4-0.7-0.4-1c-0.1-0.5-0.1-1.2,0.5-1.6c0.3-0.2,0.6-0.3,0.9-0.2c0.6,0.2,1,0.6,1.5,1.3l2.4,3.8l3.6-2.3l-2.4-3.8
	c-0.7-1-1.4-1.7-2.3-2.3c-0.7-0.5-1.6-0.9-2.6-0.9c-1-0.1-2.1,0.2-3.3,0.9c-1.2,0.8-1.9,1.7-2.3,2.6c-0.4,0.9-0.4,1.9-0.2,2.8
	c0.1,1,0.5,2.1,1.1,3.1l9.3,14.6c0.6,1,1.3,1.9,2.1,2.4c0.7,0.5,1.5,0.9,2.4,1c1,0.2,2-0.1,3.1-0.8c1.2-0.8,1.8-2,1.9-3.3l1.2,0.9
	l2.2-1.4l-7.8-12.4L142.8,164.8z M169.1,154.5l-6.4-4.9l2.4-3.2l-3.7-2.9l-2.4,3.2l-6.1-4.7l3.4-4.4l-3.5-2.7l-6,7.8l23.4,17.9
	l6-7.8l-3.5-2.7L169.1,154.5z M172.3,132.7l3.6,1.3l1.9-5.5l-3.6-1.3L172.3,132.7z"/>
</svg>
