<svg version="1.1" id="Calque_1" xmlns="http://www.w3.org/2000/svg" xmlns:xlink="http://www.w3.org/1999/xlink" x="0px" y="0px"
	 viewBox="0 0 212 212" xml:space="preserve" style="fill: #ffbc00;">
<path d="M106,0C47.6,0,0,47.6,0,106s47.6,106,106,106s106-47.6,106-106S164.4,0,106,0z M106,208C49.8,208,4,162.2,4,106
	S49.8,4,106,4s102,45.8,102,102S162.2,208,106,208z M147,106c0-22.6-18.4-41-41-41s-41,18.4-41,41s18.4,41,41,41S147,128.6,147,106z
	 M106,143c-20.4,0-37-16.6-37-37s16.6-37,37-37s37,16.6,37,37S126.4,143,106,143z M51.6,97.6l-19.9-4.2l21-1.2l0.9-4.4l-27.4-5.7
	l-0.8,3.8l16.4,3.4l-17.3,1l-1.1,5.4l27.4,5.7L51.6,97.6z M36.9,73.1l12.5,7.4c3.9,2.3,7.3,1.5,9.5-2.2c2.2-3.7,1.2-7.1-2.7-9.3
	l-12.5-7.4c-3.9-2.3-7.3-1.5-9.5,2.2S33,70.8,36.9,73.1z M37.6,65.8c0.7-1.2,1.8-1.6,3.5-0.6l13,7.7c1.7,1,1.9,2.2,1.2,3.4
	s-1.8,1.6-3.5,0.6l-13-7.7C37.1,68.1,36.9,67,37.6,65.8z M66.6,58.8c1.3,1.5,1.2,2.6,0.1,3.5c-1,0.9-2.2,1-3.5-0.5l-1.3-1.5
	l-3.1,2.8l1.2,1.3c3,3.3,6.4,3.7,9.6,0.9c3.2-2.9,3.2-6.3,0.2-9.6c-5.3-6-12.5-1-16.3-5.3c-1.3-1.5-1.2-2.6-0.2-3.5
	c1-0.9,2.1-0.9,3.5,0.6l0.8,0.9l3.1-2.8l-0.6-0.7c-3-3.3-6.3-3.8-9.5-0.9c-3.2,2.9-3.1,6.2-0.1,9.6C55.6,59.5,62.7,54.5,66.6,58.8z
	 M89.7,53.4l-2.8-10.1l2-0.6c4.2-1.2,5.7-4.1,4.5-8.4l-1-3.5c-1.2-4.3-3.9-6.1-8.2-4.9L78,27.6l7.5,27L89.7,53.4z M85.3,29.7
	c1.3-0.4,2.3,0,2.8,2l1.1,4c0.5,1.9,0,2.7-1.4,3.1l-2,0.6l-2.5-9.1L85.3,29.7z M113.9,47.2l-7.6-0.2l0.3-8.2l6,0.2l0.1-4l-6-0.2
	l0.2-7.8l7.6,0.2l0.1-4l-12-0.4l-0.9,28l12,0.4L113.9,47.2z M125.4,54.5l7.5-22.8l4.4,1.4l1.3-3.8l-12.9-4.3l-1.3,3.8l4.4,1.4
	l-7.5,22.8L125.4,54.5z M136.8,60.4l14.8-23.8l-3.7-2.3l-14.8,23.8L136.8,60.4z M143.5,65.7l3.1,3.1l17-16.9l3.2,3.3l2.8-2.8
	l-9.6-9.7l-2.8,2.8l3.2,3.3L143.5,65.7z M157.5,85.7l3.5-1.9l-3.6-6.7l7.2-3.9l2.8,5.3l3.5-1.9l-2.8-5.3l6.9-3.7l3.6,6.7l3.5-1.9
	l-5.6-10.6l-24.7,13.2L157.5,85.7z M187.8,90.3c-0.8-4.2-3.7-5.9-8.1-5c-7.9,1.5-7.3,10.2-13,11.2c-2,0.4-2.8-0.4-3.1-1.7
	c-0.3-1.4,0.3-2.4,2.2-2.8l2-0.4l-0.8-4.1l-1.7,0.3c-4.4,0.8-6.5,3.5-5.7,7.8s3.7,6,8.1,5.1c7.9-1.5,7.3-10.2,13-11.2
	c2-0.4,2.9,0.3,3.1,1.6c0.3,1.4-0.3,2.3-2.3,2.7l-1.1,0.2l0.8,4.1l0.9-0.2C186.5,97.1,188.6,94.5,187.8,90.3z M35.1,119.3l4-0.5
	l-1-7.9l-4,0.5L35.1,119.3z M53.6,126.1l-27.4,7.5l1.7,3.7l4.9-1.4l2.2,4.9l-4.3,2.8l1.8,4L56.3,132L53.6,126.1z M38.3,138.6
	l-1.7-3.9l13.8-3.9L38.3,138.6z M65.9,145.1l-4.8-5l-20.2,19.4l4.8,5c3,3.2,6.3,3,9.5-0.1l10.2-9.8
	C68.7,151.5,68.9,148.2,65.9,145.1z M62.5,151.3L52,161.4c-1.4,1.4-2.5,1.3-3.5,0.3l-1.7-1.8L61.2,146l1.7,1.8
	C63.9,148.8,64,149.9,62.5,151.3z M81,156.2l-5.9-3l-12.6,25l3.9,2l5.1-10.2l1.4,0.7c1.8,0.9,2.1,2.2,1,4.5l-2,3.9
	c-1,2-1.1,2.5-1.2,3.3l4,2c0.1-1.1,0.5-2,1.1-3.3l1.9-3.9c1.3-2.6,1.6-4.8,0.1-6.6c2.2,0.1,3.8-1.2,5.1-3.8l1-2
	C85.9,161,85.1,158.2,81,156.2z M79.8,163.3l-1.2,2.5c-1,2-2.2,2.2-3.7,1.5l-1.5-0.8l3.9-7.7l1.9,1
	C80.5,160.4,80.7,161.5,79.8,163.3z M88.8,188.4l11.9,1.6l0.5-4l-7.5-1l1.1-8.1l6,0.8l0.5-4l-6-0.8l1.1-7.7l7.5,1l0.5-4l-11.9-1.6
	L88.8,188.4z M115.3,167.8c-0.4-2,0.3-2.9,1.7-3.1c1.4-0.3,2.3,0.4,2.7,2.3l0.2,1.1l4.1-0.7l-0.2-0.9c-0.8-4.4-3.4-6.5-7.6-5.8
	c-4.2,0.8-5.9,3.7-5.1,8.1c1.4,7.9,10.1,7.4,11.1,13.1c0.4,2-0.4,2.8-1.8,3.1c-1.4,0.3-2.4-0.3-2.7-2.3l-0.4-2l-4.1,0.7l0.3,1.7
	c0.8,4.4,3.5,6.5,7.7,5.7c4.2-0.8,6-3.7,5.2-8.1C125,173,116.3,173.5,115.3,167.8z M134.4,161.7c-1-1.8-0.6-2.8,0.6-3.5
	c1.2-0.7,2.3-0.4,3.3,1.4l0.6,1l3.6-2l-0.4-0.8c-2.2-3.9-5.3-5.1-9.1-3c-3.7,2.1-4.4,5.4-2.3,9.3c3.9,7,11.9,3.8,14.7,8.8
	c1,1.8,0.5,2.8-0.7,3.5s-2.3,0.5-3.3-1.3l-1-1.8l-3.6,2l0.8,1.5c2.2,3.9,5.4,5.1,9.1,3c3.8-2.1,4.5-5.4,2.3-9.3
	C145.2,163.5,137.1,166.7,134.4,161.7z M163.7,161.4l-6-5.6l4.1-4.4l-2.9-2.7l-4.1,4.4l-5.7-5.3l5.2-5.6l-2.9-2.7l-8.2,8.8l20.5,19
	l8.2-8.8l-2.9-2.7L163.7,161.4z M179.1,132.1c-7.3-3.3-11.8,4-17.1,1.7c-1.8-0.8-2.2-1.9-1.6-3.1c0.6-1.3,1.6-1.7,3.4-0.9l1.1,0.5
	l1.7-3.8l-0.8-0.4c-4.1-1.9-7.3-0.9-9.1,3c-1.8,3.9-0.4,7,3.7,8.8c7.3,3.3,11.8-4,17.1-1.7c1.8,0.8,2.1,1.9,1.5,3.2
	c-0.6,1.3-1.6,1.8-3.4,0.9l-1.8-0.8l-1.7,3.8l1.6,0.7c4.1,1.9,7.3,0.9,9.1-3C184.5,137.1,183.1,134,179.1,132.1z M177.9,111.9
	l-4-0.5l-1.1,7.9l4,0.5L177.9,111.9z"/>
</svg>
