<svg version="1.1" id="Calque_1" xmlns="http://www.w3.org/2000/svg" xmlns:xlink="http://www.w3.org/1999/xlink" x="0px" y="0px"
	 viewBox="0 0 212 212" xml:space="preserve" style="fill: #ffbc00;">
<path d="M106,0C47.6,0,0,47.6,0,106s47.6,106,106,106s106-47.6,106-106S164.4,0,106,0z M106,208C49.8,208,4,162.2,4,106
	S49.8,4,106,4s102,45.8,102,102S162.2,208,106,208z M106,65c-22.6,0-41,18.4-41,41s18.4,41,41,41s41-18.4,41-41S128.6,65,106,65z
	 M106,143c-20.4,0-37-16.6-37-37s16.6-37,37-37s37,16.6,37,37S126.4,143,106,143z M31.9,86.5l13.7,4.9c4.2,1.5,7.4,0.2,8.8-3.8
	s-0.2-7-4.4-8.5l-3.5-1.2l-1.4,3.9l3.8,1.3c1.9,0.7,2.3,1.7,1.8,3.1c-0.5,1.3-1.4,1.9-3.3,1.2l-14.2-5.1c-1.9-0.7-2.3-1.8-1.8-3.1
	c0.5-1.3,1.5-1.9,3.4-1.2l2.8,1l1.4-3.9l-2.6-0.9c-4.2-1.5-7.4-0.2-8.8,3.8C26.1,82.1,27.7,85,31.9,86.5z M44.2,60.8l11,9.6
	c3.4,2.9,6.9,2.9,9.7-0.4s2.5-6.7-0.9-9.7l-11-9.6c-3.4-2.9-6.9-2.9-9.7,0.4C40.4,54.4,40.8,57.9,44.2,60.8z M46.3,53.8
	c0.9-1.1,2.1-1.2,3.6,0.1l11.4,9.9c1.5,1.3,1.5,2.5,0.6,3.5c-0.9,1.1-2.1,1.2-3.6-0.1l-11.4-9.9C45.3,56,45.3,54.9,46.3,53.8z
	 M78.7,58.1L69.6,40l14,15.7l4-2l-12.5-25l-3.5,1.8l7.5,15l-11.5-13l-4.9,2.5l12.5,25L78.7,58.1z M103.2,44.6c0.2,2-0.7,2.8-2.1,2.9
	c-1.4,0.1-2.3-0.5-2.5-2.5l-0.2-2l-4.1,0.3l0.1,1.7c0.3,4.5,2.8,6.8,7.1,6.5c4.3-0.3,6.3-3.1,6-7.5c-0.6-8-9.3-8.4-9.7-14.1
	c-0.2-2,0.6-2.8,2-2.9s2.3,0.6,2.4,2.6l0.1,1.2l4.1-0.3l-0.1-0.9c-0.3-4.5-2.7-6.8-7-6.5c-4.3,0.3-6.3,3.1-5.9,7.5
	C94.1,38.4,102.7,38.8,103.2,44.6z M128.4,51l-7.3-2.1l2.3-7.9l5.8,1.7l1.1-3.8l-5.8-1.7l2.2-7.5l7.3,2.1l1.1-3.8l-11.5-3.3
	l-7.8,26.9l11.5,3.3L128.4,51z M138.2,61.4L153.7,38l-3.7-2.4l-15.5,23.3L138.2,61.4z M152.5,75.9l3.1-2.6l-4.6-5.6l18.5-15.3
	l-2.8-3.4l-21.6,17.9L152.5,75.9z M164.7,87.7c-1.9,0.7-2.9,0.1-3.3-1.2c-0.5-1.3-0.1-2.4,1.8-3.1l1.9-0.7l-1.4-3.9l-1.6,0.6
	c-4.2,1.5-5.9,4.4-4.5,8.5c1.4,4.1,4.6,5.3,8.8,3.9c7.5-2.7,5.7-11.1,11.1-13c1.9-0.7,2.9-0.2,3.3,1.2c0.5,1.3,0,2.3-1.9,3l-1.1,0.4
	l1.4,3.9l0.8-0.3c4.2-1.5,5.9-4.4,4.5-8.4c-1.4-4-4.6-5.3-8.8-3.8C168.3,77.3,170.1,85.8,164.7,87.7z M34.2,112.3l4-0.1l-0.2-8
	l-4,0.1L34.2,112.3z M34.3,135.7c-1.9,0.7-2.9,0.1-3.4-1.2c-0.5-1.3-0.1-2.4,1.7-3.1l14.1-5.3c1.9-0.7,2.9-0.2,3.4,1.2
	c0.5,1.3,0.1,2.4-1.8,3.1l-2.8,1.1l1.5,3.9l2.5-1c4.2-1.6,5.8-4.6,4.3-8.6s-4.7-5.2-8.9-3.7l-13.6,5.1c-4.2,1.6-5.8,4.6-4.3,8.6
	c1.5,4,4.7,5.2,8.9,3.7l3.5-1.3l-1.5-3.9L34.3,135.7z M64.4,143.1c-2.9-3.2-6.4-3.3-9.7-0.3l-10.9,9.7c-3.3,3-3.7,6.5-0.8,9.7
	c2.9,3.2,6.4,3.3,9.7,0.3l10.9-9.7C67,149.7,67.3,146.3,64.4,143.1z M60.9,149.3l-11.3,10.1c-1.5,1.3-2.6,1.2-3.6,0.1
	s-1-2.2,0.5-3.5l11.3-10.1c1.5-1.3,2.6-1.2,3.6-0.1C62.4,146.8,62.4,147.9,60.9,149.3z M76.3,172.5l3.4-17l-4.9-2.5l-12.5,25
	l3.5,1.8l9.1-18.1l-4.2,20.6l4,2l12.5-25l-3.5-1.8L76.3,172.5z M101.1,161.5c-4.3-0.4-6.7,2-7.1,6.4c-0.7,8,7.8,9.8,7.3,15.5
	c-0.2,2-1.1,2.6-2.5,2.5c-1.4-0.1-2.2-0.9-2-2.9l0.2-2l-4.1-0.4l-0.2,1.7c-0.4,4.5,1.6,7.2,5.9,7.6s6.8-2,7.1-6.4
	c0.7-8-7.8-9.8-7.3-15.5c0.2-2,1-2.7,2.4-2.6c1.4,0.1,2.1,0.9,2,2.9l-0.1,1.2l4.1,0.4l0.1-0.9C107.3,164.6,105.3,161.8,101.1,161.5z
	 M125.8,183.6l-2.2-7.9l5.8-1.6l-1.1-3.9l-5.8,1.6l-2.1-7.5l7.3-2l-1.1-3.9l-11.6,3.2l7.4,27l11.6-3.2l-1.1-3.9L125.8,183.6z
	 M134.2,154.4l15.1,23.6l3.7-2.4l-15.1-23.6L134.2,154.4z M166,158.9l-18.2-15.7l-2.9,3.3l21.2,18.3l7.6-8.8l-3-2.6L166,158.9z
	 M180.6,127.5c-7.5-2.9-11.6,4.8-16.9,2.7c-1.9-0.7-2.3-1.7-1.8-3c0.5-1.3,1.5-1.8,3.4-1.1l1.1,0.4l1.5-3.9l-0.8-0.3
	c-4.2-1.6-7.4-0.5-8.9,3.5s0.1,7,4.3,8.6c7.5,2.9,11.6-4.8,16.9-2.7c1.9,0.7,2.2,1.8,1.7,3.1c-0.5,1.3-1.5,1.9-3.4,1.2l-1.9-0.7
	l-1.5,3.9l1.6,0.6c4.2,1.6,7.4,0.4,8.9-3.6C186.3,132.1,184.7,129.1,180.6,127.5z M173.8,112.7l4,0.2l0.3-8l-4-0.2L173.8,112.7z"/>
</svg>
