<?xml version="1.0" encoding="utf-8"?>
<!-- Generator: Adobe Illustrator 22.0.0, SVG Export Plug-In . SVG Version: 6.00 Build 0)  -->
<svg version="1.1" id="Calque_1" xmlns="http://www.w3.org/2000/svg" xmlns:xlink="http://www.w3.org/1999/xlink" x="0px" y="0px"
	 viewBox="0 0 416.6 272.3" style="fill: #ffffff;" xml:space="preserve">
<path d="M374.4,173.9c-0.6,0.6-1.1,1.2-1.4,1.6C373.4,175.1,373.9,174.5,374.4,173.9z M372.3,176.3c-0.3,0.4-0.7,0.8-1.1,1.2
	C371.6,177.1,372,176.7,372.3,176.3c0.1-0.1,0.1-0.2,0.3-0.3C372.4,176.1,372.4,176.2,372.3,176.3z M274.1,57.1
	c9.3-3.3,18.4-4.9,27.1-4.9c8.9,0,15.9,2.2,20.8,6.5c5,4.3,7.6,10.4,7.6,18.1c0,7.5-2.8,13-8.2,16.4c-5.2,3.3-13.3,4.9-24.7,4.9H271
	v39.2h12l4-4.8l0.1-0.1l0.1-0.1l3.6-3.9c1.8-2.4,4.4-3.7,7.3-3.7c1.4,0,2.8,0.3,4.2,0.9l0.1,0l0.1,0c4.2,2,6.4,5.9,5.7,10.3l0,0.1
	l0,0.1c-0.1,0.4-0.2,0.8-0.3,1.2c0.4,0.1,0.9,0.2,1.3,0.3c8.2,0.6,14.4,2.3,18.6,5c1.7,1.1,3.1,2.5,4.2,4c2.6-3.4,5.5-6.5,8.6-9.2
	c2.1-1.9,4.5-3.7,7.3-5.5l0,0l0,0c0.7-0.4-0.8-2-0.1-2.4c-0.2-0.2-0.3-0.3-0.5-0.5c-3.1-3.1-3.8-7.5-1.8-11.3l0.1-0.2
	c0.5-0.8,1.1-1.6,1.7-2.2l0,0.1l9.6-5.6c5.8-3.4,10.6-7.7,14.2-13c5.5-7.7,8.2-17.1,8.2-28c0-11.1-3-21-9-29.4
	c-6-8.5-14.6-15.1-25.4-19.6c-11.6-4.5-24.8-6.8-39.2-6.8c-14,0-27.9,2-41.3,6c-13,3.8-23.6,9-31.7,15.2L248.4,70
	C256.5,64.6,265.1,60.3,274.1,57.1z M368.8,197.5l-0.2,0.1c-4.1,3-7.9,5.4-11.6,7.4c-5.1,2.8-10.4,4.2-16,4.2c-1.3,0-2.7-0.1-4-0.2
	c-3.6-0.4-7.1-1.7-10.2-3.8c-3.1-2.1-5.5-5-7.2-8.4c-2.5,2.5-4.8,4.6-7.1,6.4c-2,1.6-4,3.1-6,4.4c-2.9,2-6,3.2-9.5,3.6l-0.1,0
	l-0.1,0c-0.6,0.1-1.2,0.1-1.8,0.1c-2.4,0-4.7-0.5-6.6-1.5c-2.3-1.1-4.2-2.9-5.8-5.3l0,0l0-0.1c-1.3-2.1-2.1-4.3-2.4-6.6
	c-0.4-2.1-0.4-4.2-0.1-6.4l0-0.1l0-0.1c0.5-2.9,1.3-5.8,2.4-8.5c-3.9-0.8-7.7-1.9-11.4-3.2l-2,2.1l-0.1,0.1l-0.1,0.1
	c-2.3,2.3-4.4,4.3-6.5,6.3c-2,1.9-4.2,3.8-7,6c-1.6,1.4-3.2,2.6-4.8,3.8l-4.5,3.3l-0.1,0.1l-0.1,0.1l-4.7,3.1c0,0,0,0.1-0.1,0.1l0,0
	l0,0l-1.9,4.4c6.3,3.4,13.4,6.3,21.4,8.6c13.5,4,27.9,6.1,42.7,6.1c25,0,44.8-5.2,59.1-15.6c2-1.5,4.1-3.2,6.3-5.3
	c0.1-0.1,0.1-0.1,0.2-0.2l0,0l0.4-0.4l0.8-0.8c0.2-0.2,0.4-0.4,0.6-0.6c0.3-0.3,0.6-0.7,0.9-1l0.7-0.7c0.1-0.1,0.3-0.3,0.4-0.5
	c0.2-0.2,0.3-0.4,0.5-0.6l0.2-0.3l0.2-0.2c0.2-0.2,0.4-0.5,0.6-0.7c0.4-0.6,0.9-1.2,1.3-1.8c0-0.1,0.1-0.1,0.1-0.2
	c0.1-0.2,0.2-0.4,0.4-0.6c0,0,0.1-0.1,0.1-0.1v-0.1l1-1.5c0.1-0.2,0.2-0.3,0.2-0.4c0.2-0.5,0.5-0.9,0.7-1.2c0.1-0.2,0.2-0.4,0.3-0.6
	l0.2-0.3l0.1-0.1c0.1-0.1,0.1-0.3,0.2-0.4c0.2-0.3,0.3-0.7,0.5-1c0.1-0.2,0.2-0.4,0.3-0.7c0.1-0.2,0.1-0.3,0.2-0.4l0,0
	c-3.6,3.5-7.2,6.9-10.7,9.8L368.8,197.5z M360.3,187.1c-0.6,0.5-1.3,1-2,1.5C359,188.1,359.7,187.6,360.3,187.1
	c0.7-0.5,1.3-1,1.9-1.6C361.6,186,361,186.6,360.3,187.1z M352.3,192.5c-1,0.4-2.1,0.9-3.2,1.3C350.2,193.4,351.3,192.9,352.3,192.5
	c0.7-0.4,1.4-0.8,2-1.2C353.7,191.7,353,192.1,352.3,192.5z M380,149.7L380,149.7L380,149.7c-0.9,2.8-2.2,5.3-3.8,7.5
	c-1.6,2.3-3.5,4.4-5.8,6.3c-2,1.7-3.8,3.2-5.8,4.4c-2.9,1.9-6,3.5-9.8,5.2l-0.1,0l-0.1,0c-3,1.2-6.3,2.5-9.7,3.6l0,0l0,0l-3,0.9
	l-0.3,0.1l-0.3,0.1c-0.5,0.1-1.1,0.3-1.8,0.5l-0.5,0.2c-0.1,0-0.6,0.2-1.2,0.4c-0.5,2.4-0.8,4.7-0.9,6.7c0,0.3,0.1,0.6,0.1,0.9
	c0.1,0.8,0.3,1.5,0.4,2.3c0,0.2,0.1,0.3,0.2,0.5c0.5,0.4,0.9,0.4,1.2,0.4h0.4l0.4,0.1c0.4,0.1,0.9,0.1,1.3,0.1c1,0,1.9-0.1,2.8-0.5
	l0,0l0,0c1.9-0.6,3.8-1.4,5.6-2.1c2.5-1.5,4.8-3.1,7-4.8c2.6-2.1,5-4,7.4-6.2l0.1-0.1l0.1-0.1c1.3-1.1,2.5-2.3,3.7-3.7l0,0l0,0
	c0.7-0.8,8.9-10,15.5-17.6c-0.6-3.1-1.4-6-2.5-8.8C380.7,147.2,380.4,148.5,380,149.7z M73.4,78.2c1-1.6,2-3,3-4.4
	c-4.3,0.4-8.4,1-12.4,1.8l0,0l0,0c-0.1,0-0.1,0-0.2,0c-0.2,2.5-0.4,5.1-0.4,7.7c0,4.2,0.3,8.3,0.9,12.3c1.3-2.8,2.8-5.6,4.4-8.7
	C70,84.1,71.5,81.2,73.4,78.2z M101.1,180.8c0.5-0.4,0.9-0.7,1.4-1.1c-7.3-2.8-15.1-7-23.1-12.3l-10.6,24c1.7,0,3.3-0.1,4.8-0.3
	l0.2,0l0.2,0c5-0.3,9.7-1.3,14-3.1C92.3,186.3,96.7,183.9,101.1,180.8z M177.2,205.1L177.2,205.1L177.2,205.1
	c-5.1,2.8-10.7,4.3-16.2,4.3c-1.3,0-2.4-0.1-3.5-0.2l-0.2,0l0,0l0,0c-3.7-0.4-7.1-1.7-10.2-3.8c-3.1-2.1-5.6-5.1-7.2-8.6
	c-1.8-3.8-2.6-8-2.4-12.4c0,0,0,0,0,0c-2.6,0.5-5.4,0.8-8.3,0.8c-1.2,0-2.5-0.1-3.8-0.2c-0.2,0.3-0.4,0.5-0.7,0.8l-0.1,0.1l-0.1,0.1
	c-5.4,5.6-11.2,10.4-17.1,14.4l-0.1,0l-0.1,0c-6.8,4.2-14.1,7.1-21.8,8.8c-3.5,0.8-7.1,1.3-10.8,1.6c5.6,3.1,12,5.8,18.9,7.9
	c12.2,3.8,25.1,5.7,38.3,5.7c18.3,0,34.5-4.4,48.2-13c4.1-2.6,8.1-5.7,11.8-9.2c-1.2-1.5-2.1-3-2.7-4.7
	C185.6,200,181.6,202.6,177.2,205.1z M90.1,69.5c0,0-0.1,0-0.1,0c0,0,0,0,0,0C90,69.5,90,69.5,90.1,69.5z M221.4,136.6
	c0.7-6.5,1.1-13.3,1.1-20.2c-0.4-33.2-8.2-58.9-23.1-76.6C184.4,22,162.9,13,135.3,13c-13.8,0-26.4,3-37.3,9
	C87,27.9,78.4,36.4,72.4,47l0,0l0,0c-1.5,2.5-2.8,5.2-3.9,8c1.9-0.3,3.8-0.5,5.7-0.7l0,0l0,0c3.3-0.2,6.4-0.3,9.4-0.3
	c1.7,0,3.5,0,5.2,0.1c4.9,0.2,9.8,0.7,14.5,1.6l0.1,0l0.1,0c4.9,1.1,9.8,2.9,14.6,5.2c0.3-0.3,0.6-0.7,0.9-1
	c4.8-5.4,11.4-8.2,19.6-8.2c8,0,14.6,2.8,19.6,8.4c5,5.5,7.6,12.7,7.6,21.2c0,9-2.4,16-7.4,21.4l0,0l0,0c-3.5,3.7-7.7,6.2-12.5,7.4
	l0,0l0,0c-1.6,0.4-4.1,0.8-7.2,0.8c-0.6,0-1.4,0-2.3-0.1c-7.3-0.4-13.1-3.1-17.5-8c-4.8-5.3-7.1-12.4-7.1-21.6c0-0.6,0-1.3,0-1.9
	c-3.8-2.2-7.9-3.7-12.1-4.6c-0.3,1.8-1.1,3.3-1.9,4.2l-0.3,0.4L97.2,80l-2.3,2.1c-1.7,2-3,3.8-4.2,5.6l0,0l0,0
	c-1.6,2.5-2.9,4.7-4,6.8l0,0.1l0,0.1c-3.8,7-6.7,13.2-9.1,19.1l0,0.1l0,0.1c-1.1,2.6-2.3,5.3-3.4,8.1c5,8.1,11.6,14.6,19.5,19.4
	c9.4,5.7,20,8.5,31.6,8.5c0.5,0,1.1,0,1.7,0c0.7,0,1.4-0.1,2.2-0.1h0.4l0,0c0.3,0,0.6-0.1,1.1-0.1c1-0.1,1.9-0.2,2.8-0.3l0.5-0.1
	h0.2c0.2,0,0.5-0.1,0.8-0.1c0.4-0.1,0.8-0.2,1.4-0.3l0.4-0.1l0.2,0l0.2,0c0.3,0,0.5-0.1,0.8-0.1c0.2,0,0.4-0.1,0.6-0.1
	c0.3-0.1,0.5-0.1,0.7-0.1c0.6-0.2,1.1-0.3,1.7-0.5c0.5-0.1,0.9-0.2,1.3-0.4c0.4-0.1,0.7-0.2,0.9-0.2c2.3-0.7,4.6-1.6,7-2.7
	c2.6-1.2,4.8-2.5,6.8-3.8c1.4-1.5,2.7-2.7,3.9-3.8c2.1-1.9,4.5-3.7,7.3-5.5l0,0l0,0c3.1-1.9,6.5-3.3,9.9-3.9l0.1,0l0.1,0
	c1.4-0.2,2.8-0.3,4.2-0.3c2.5,0,5,0.4,7.6,1.1l0.1,0l0.1,0c5,1.6,8.7,5.2,10.4,10.2l0.1,0.2l0,0.2c1,3.7,1,7.2-0.1,10.5l0,0l0,0
	c-0.9,2.7-2.2,5.2-3.8,7.5c-1.6,2.3-3.5,4.4-5.8,6.3c-2,1.7-3.8,3.2-5.8,4.4c-2.9,1.9-6,3.5-9.8,5.2l-0.1,0l-0.1,0
	c-3,1.2-6.3,2.5-9.7,3.6l0,0l0,0l-3,0.9l-0.1,0l-0.1,0l-0.4,0.1c-0.5,0.1-1.5,0.4-2.5,0.7l-0.1,0l-0.1,0c-0.3,0.1-0.5,0.1-0.8,0.2
	c-0.6,2.6-0.9,5-0.9,6.9l0,0.2c0.2,0.9,0.3,1.9,0.5,3c0,0.2,0.1,0.3,0.2,0.5c0.5,0.4,0.9,0.4,1.2,0.4h0.4l0.4,0.1
	c0.4,0.1,0.9,0.1,1.3,0.1c1,0,1.9-0.1,2.8-0.5l0,0l0,0c1.9-0.6,3.8-1.4,5.6-2.1c2.5-1.5,4.8-3.1,7-4.8c2.6-2.1,5-4,7.4-6.2l0.1-0.1
	l0.1-0.1c1.3-1.1,2.5-2.3,3.7-3.7l0,0l0,0l4-4.5l4.3-5.2l0.1-0.1c0.1-0.2,0.2-0.3,0.3-0.5c0.2-0.3,0.4-0.7,0.7-1.1
	c2.8-4.5,6.5-9.1,11.3-13.9C212.6,143.1,216.8,139.6,221.4,136.6z M182.1,133.4c0.1,0,0.2,0,0.3,0c0,0,0,0-0.1,0
	C182.3,133.4,182.2,133.4,182.1,133.4z"/>
<g id="logo--degres">
	<path d="M137.7,155c-0.4,0.1-0.8,0.2-1.2,0.2c-0.5,0.1-0.9,0.2-1.4,0.2c-0.3,0.1-0.7,0.1-1,0.1c-1.2,0.2-2.3,0.3-3.5,0.4
		c-0.4,0-0.8,0.1-1.3,0.1c-0.2,0-0.4,0-0.6,0l0,0c-2.6,5.2-5.7,10.2-9.2,14.8c-1.6,2.2-3.5,4.2-5.3,6.2c-3,3.1-6.2,6-9.6,8.5
		c-4.6,3.2-9.4,5.9-14.4,7.9c-4.9,2-10.3,3.2-16,3.5c-4.8,0.5-9.7,0.4-14.5-0.1c-1.4-0.2-2.8-0.4-4.1-0.6
		c-5.8-1.1-11.6-2.5-17.3-4.3c3.1-5.1,5.8-10.6,8-16.2c2.4-6,4.8-11.9,7.1-17.7c3-7.9,6-15.7,9-23.3c1.6-4,3.2-8,4.8-12
		c1.5-3.7,3.1-7.4,4.6-11c2.6-6.3,5.8-12.9,9.4-19.7c1.3-2.6,2.8-5.1,4.3-7.4c1.6-2.3,3.2-4.6,4.9-6.6l2.6-2.4
		c0.7-0.9,0.9-1.9,0.7-3.1s-1-2.1-2-2.6c-1.7-0.8-3.4-0.5-4.8,1c-1.1,1.1-2,2.1-2.9,3c-2,2.3-3.9,4.9-5.6,7.5
		c-1.7,2.7-3.2,5.4-4.5,8.2c-4,7.4-7.6,15-10.7,22.7c-0.2,0.4-0.3,0.8-0.5,1.2c-3,7.2-5.9,14.6-8.7,22c-3,7.8-6,15.6-9,23.3
		c-3,7.6-6.3,15.3-9.9,22.8c-0.9,1.4-1.6,2.8-2.3,4.2c-0.6,1.2-1.3,2.5-2,3.7l0,0c-0.6-0.2-1-0.4-1.4-0.6l-3.1-1.3l-6-1.7
		c-1.5-0.3-3-0.7-4.6-1c-1.7-0.4-3.4-0.4-5,0c-3.4,0.5-6.2,2.3-8.4,5.3c-1.8,2.3-2.6,5-2.2,7.8s1.9,5.1,4.4,6.7
		c2.6,1.8,5.4,2.7,8.4,2.7c0.3,0,0.5,0,0.8,0c3.1-0.2,6.2-0.8,9.1-1.8c1.9-0.7,3.7-1.4,5.3-2.3c1.8-0.9,3.4-2.2,4.7-3.9l1-1l7,2.2
		c3.5,1,7.1,1.8,10.7,2.5c1.6,0.3,3.3,0.6,5,0.8c2,0.3,4.1,0.5,6.2,0.7c7.2,0.5,14.4,0,21.3-1.5c7-1.5,13.7-4.2,19.9-8
		c5.8-3.8,11.3-8.3,16.1-13.5c0.9-1,1.8-2,2.6-3c3.7-4.3,7.1-8.9,10-13.8C134.5,161.8,136.2,158.5,137.7,155L137.7,155z M24.7,197
		c-1.7,0.8-3.7,1.5-5.8,2.1c-2,0.6-4.2,0.9-6.3,0.7c-1.1-0.1-2.2-0.5-3.5-1c-1-0.4-1.5-1.1-1.7-2.1c-0.1-0.7,0.1-1.3,0.5-1.9
		c0.6-0.7,1.2-1.3,1.9-1.7c1.1-0.5,2.1-0.7,3.2-0.7c0.2,0,0.5,0,0.7,0c2.3,0.3,4.5,0.8,6.8,1.6c1.8,0.6,3.6,1.2,5.5,1.8
		C25.8,196.2,25.3,196.5,24.7,197z M355.9,127.3h0.4h0.7c0.6,0,1.1-0.1,1.6-0.2s1-0.2,1.4-0.3l13.7-1.6l1.8-0.2
		c1.5-0.3,2.6-1.2,3.2-2.7l0.1-0.2c0.3-1.8-0.3-3.2-1.6-4c-0.9-0.6-1.8-0.8-2.7-0.7l-0.8,0.2c-1.3,0.1-2.6,0.3-3.8,0.5
		c-1.2,0.2-2.6,0.4-3.9,0.6c-0.1,0-0.3,0-0.4,0c-1.4,0.1-2.7,0.2-4,0.3c-1.4,0.1-2.9,0.3-4.3,0.6l-1.6,0.3c-0.9,0-2.2,0.4-3.2,2.1
		c-0.8,1.4-0.6,2.9,0.7,4.2C354.2,127,355.2,127.3,355.9,127.3z M30,98.1c0.8,2,2.3,3.1,4.4,3.3c2.1,0,3.5-1.3,4-3.7
		c0-1.1-0.3-2-1-2.5c-0.3-0.2-0.4-0.5-0.6-0.8c-0.4-1.1-0.5-2.2-0.2-3.3c0.3-1.3,0.7-2.5,0.9-3.5c1.6-3.3,4.1-6.4,7.4-9.3
		c3.9-3.2,8.3-5.5,13-7.1c1.5-0.5,3-0.9,4.5-1.2c6.5-1.4,13.1-2.2,19.5-2.3c6.2-0.1,12.4,0.4,18.4,1.6s11.6,3.5,16.8,6.9
		c0.3,0.2,0.5,0.4,0.7,0.6c4.8,3.4,9,7.7,12.2,12.7c3.1,4.9,5.3,10.1,6.7,15.7c0.6,0,1.1,0.1,1.7,0.1c2.1,0,4-0.2,5.9-0.7
		c-0.5-2.3-1-4.5-1.7-6.7C140.5,91,136.9,84.7,132,79c-3.5-3.9-7.5-7.2-11.9-9.9c-0.5-0.3-1-0.7-1.6-1c-5-2.9-10.5-5.1-16.3-6.4
		c-4.5-0.8-9.1-1.3-13.7-1.5s-9.3-0.1-13.9,0.2l0,0c-5,0.4-10.1,1.3-15.1,2.6c-1.3,0.3-2.6,0.7-3.9,1.1c-6.3,2-12,5.2-16.9,9.6
		c-3.6,3.4-6.2,7-7.9,10.7c-1.4,2.9-2,5.9-1.8,8.8C29,94.7,29.3,96.3,30,98.1z M414.9,132.4c-1.7-1.3-3.6-1.1-5.1,0.6l-3,3.4
		c-3.8,4.3-7.6,8.6-11.2,13c-1.1,1.3-3.4,3.9-6.1,7.1c-6.8,7.8-16.5,18.8-17.4,19.8c-1.4,1.5-2.8,3-4.3,4.3c-2.4,2.2-5,4.4-7.7,6.5
		c-2.6,2-5.3,3.9-8,5.4c-2.1,1-4.4,1.8-6.6,2.5s-4.4,0.9-6.7,0.6c-1.9,0-3.8-0.7-5.5-2.1c-0.9-1-1.5-2.2-1.8-3.5
		c-0.3-1.4-0.6-2.8-0.7-4c0-3.6,0.7-7.9,1.9-12c2.1-0.7,4.3-1.3,4.4-1.3c1-0.3,1.9-0.6,2.9-0.8c1-0.3,2-0.5,3-0.9
		c3.2-1,6.3-2.1,9.3-3.4c3-1.2,6-2.8,8.9-4.7c1.7-1.1,3.4-2.5,5.2-4c1.8-1.5,3.4-3.3,4.7-5.1c1.3-1.9,2.3-3.9,3-5.9
		c0.7-2.2,0.7-4.5,0-7.1c-1.1-3.3-3.3-5.4-6.5-6.4c-3-0.9-6.1-1.2-9.1-0.6c-2.8,0.5-5.4,1.6-7.8,3.1c-2.3,1.5-4.6,3.2-6.6,5
		c-4.9,4.3-9,9.5-12.4,15.3c-0.8,1.4-1.5,2.7-2.2,4.1c-1.4,2.8-2.6,5.7-3.5,8.6l-5.8,6.4l-7.5,8.3c-2.1,2.3-4.3,4.5-6.4,6.6
		s-4.5,3.9-7,5.5c-0.7,0.3-1.5,0.7-2.4,1.2c-0.7,0.4-1.2,0.4-1.9,0.2c-0.9-0.2-1.3-0.8-1.4-1.8c-0.1-1.4,0-2.6,0.1-3.4
		c0.8-3.3,2.1-6.6,3.9-9.6c0.9-1.5,1.7-2.9,2.6-4.4c1-1.6,1.9-3.2,2.9-4.7l3.5-5.4c1.2-1.8,2.3-3.8,3.2-5.7c2-3.4,3.4-6.8,4.1-10.2
		c0.4-1.8,0.2-3.6-0.6-5.3c-0.8-1.7-2.2-3-4.2-3.7c-0.4-0.2-0.9-0.3-1.3-0.5c-1.2-0.4-2.5-0.5-3.8-0.4c-1.5,0.2-3.1,0.2-4.6,0
		c-0.2,0-0.4-0.1-0.5-0.1l0.1-0.4v-0.2c0-0.4,0.1-0.7,0.2-1c0.2-0.4,0.3-0.9,0.5-1.4c0.3-0.8,0.7-1.5,1.2-2.3
		c0.6-0.9,0.9-1.9,1.1-2.9c0.2-1.8-0.6-3.1-2.3-3.9c-1.8-0.8-3.3-0.3-4.4,1.1l-3.8,4.2l-5.8,7l-2.2,2.6c-2.3,2.8-4.7,5.5-7.1,8.1
		s-4.8,5.3-7.3,7.9c-0.1,0.1-0.6,0.7-1.5,1.5c-1.4,1.5-3.5,3.7-5.8,6.1c-3.3,3.5-7,7.2-8.9,9c-3.2,2.9-6.5,5.8-10,8.5l10-22.4
		l9.6-21.7c0.3-0.8,0.8-1.7,1.3-2.7c0.7-1.3,0.9-2.5,0.7-3.5c-0.2-1.5-1.1-2.6-2.6-3c-1.1-0.3-2.1-0.6-3-0.8
		c-5.8-1-11.5-0.8-17.1,0.8c-5.4,1.5-10.6,3.7-15.5,6.6c-0.1,0.1-0.2,0.1-0.3,0.2c-4.9,3-9.5,6.6-13.6,10.8
		c-4.1,4.1-7.6,8.5-10.5,13c-0.4,0.6-0.7,1.2-1.1,1.8l-0.3,0.4l-4.5,5.4l-4.1,4.6c-1.4,1.5-2.8,3-4.3,4.3c-2.4,2.2-5,4.4-7.7,6.5
		c-2.6,2-5.3,3.9-8,5.4c-2.1,1-4.4,1.8-6.6,2.5c-2.2,0.7-4.4,0.9-6.7,0.6c-1.9,0-3.8-0.7-5.5-2.1c-0.9-1-1.5-2.2-1.8-3.5
		c-0.3-1.4-0.6-2.8-0.7-4c0-3.6,0.7-8.1,2-12.3c0.9-0.2,2.6-0.7,4.2-1.1c1.4-0.4,2.7-0.7,3.1-0.8c1-0.3,2-0.5,3-0.9
		c3.2-1,6.3-2.1,9.3-3.4c3-1.2,6-2.8,8.9-4.7c1.7-1.1,3.4-2.5,5.2-4s3.4-3.3,4.7-5.1c1.3-1.9,2.3-3.9,3-5.9c0.7-2.2,0.7-4.5,0-7.1
		c-1.1-3.3-3.3-5.4-6.5-6.4c-3.1-0.9-6.1-1.2-9.1-0.6c-2.8,0.5-5.4,1.6-7.8,3.1c-2.3,1.5-4.6,3.2-6.6,5c-1.4,1.2-2.7,2.5-4,3.9
		c-3.2,3.4-6,7.2-8.4,11.4c-3.4,5.8-5.8,12-7.3,18.3v0.1c-0.7,3-1.1,6.1-1.2,9.3c-0.2,3.4,0.4,6.6,1.8,9.5c1.2,2.6,3,4.7,5.2,6.2
		s4.7,2.4,7.5,2.8c1.1,0.1,2.1,0.2,3.2,0.2c4.5,0,9-1.2,13.2-3.5c5.1-2.8,9.7-5.9,13.8-9.3c2-1.8,3.9-3.6,5.6-5.3l0,0
		c-0.2,2.3-0.1,4.6,0.3,6.9c0.4,2.9,1.7,5.4,3.6,7.6c0.8,0.9,1.7,1.6,2.7,2.2c1.9,1.2,4.1,1.9,6.6,2c3.5,0.2,6.9-0.3,10-1.3
		c3.8-1.3,7.2-3.4,10.2-6c2.1-1.8,4.1-3.8,6-5.7l-1.4,3.4l-0.5,1c-0.1,0.2-0.3,0.5-0.4,0.6L223,201c-3.3,2.1-6.6,4.3-10,6.5
		c-3.4,2.3-6.5,4.8-9.3,7.6c-4.3,4.1-8.4,8.7-12.1,13.7c-3.7,5-6.5,10.5-8.4,16.3c-0.8,2.3-1.5,4.7-1.9,7.1s-0.5,4.8-0.1,7.2
		c0.4,3.5,1.5,6.6,3.6,9.3c1.8,2.4,4.3,3.6,7.6,3.6c0.6,0,1.3,0,1.9-0.1c2.1-0.4,4.1-1.2,5.8-2.4c1.6-1.2,3.1-2.6,4.6-4.1
		c1.8-2.3,3.5-4.7,4.9-7.1s2.8-4.9,4.1-7.3c3-5.6,5.8-11.4,8.3-17.1s5.1-11.5,7.7-17.3l2.1-4.8l4.1-9.3c0.5-1.4,1.1-2,1.4-2.2
		l5.5-3.7c1.5-1.1,3-2.2,4.5-3.3s3.1-2.3,4.5-3.6c2.3-1.8,4.6-3.7,6.7-5.7s4.2-4,6.4-6.2l4.7-5l6.6-7.1c2.8-3.3,5.7-6.6,8.6-9.7
		c2.6-2.8,5.1-5.8,7.6-8.8c0.8,1.3,1.8,2.1,3,2.5c1.5,0.5,3.1,0.9,4.9,1c0.7,0,2,0,4-0.1c0.2,0,0.3,0,0.5,0c1.5,0,1.7,0.3,1.7,0.2
		c0.1,1.3-0.2,2.7-0.9,4.1l-2.2,4.4c-1.2,2-2.3,3.9-3.4,5.7s-2.2,3.6-3.3,5.4c-1.7,2.5-3.3,5.2-4.9,8c-0.5,0.8-1,1.6-1.4,2.4
		c-2.1,3.7-3.5,7.6-4.2,11.7c-0.2,1.6-0.1,3.2,0.1,4.7c0.3,1.6,0.8,3.1,1.6,4.4c0.8,1.4,2,2.5,3.4,3.2s3.1,1,5.2,0.8
		c2.5-0.4,4.8-1.2,6.8-2.6c1.9-1.3,3.8-2.7,5.7-4.2c2.9-2.3,5.6-4.8,8.1-7.5c2.1-2.3,4.2-4.6,6.3-7c0,0.2,0,0.3,0,0.5
		c-0.2,3.4,0.4,6.6,1.8,9.5c1.2,2.6,3,4.7,5.2,6.2s4.7,2.4,7.5,2.8c5.7,0.7,11.2-0.4,16.4-3.3c3.9-2.1,7.5-4.5,10.9-7
		c6.1-5.1,11.8-10.9,16.3-15.6c5.2-5.5,8.6-9.6,8.7-9.8c0,0,0,0,0-0.1c5-5.6,10.5-11.9,13.8-15.7c-0.1,3.1-0.1,6.3,0.2,9.3
		c0.3,4,0.5,8,0.5,11.9c0,2.9-0.1,5.9-0.4,8.8c-0.2,2.9-1.1,10.3-4.9,13.9c-1.7,1.5-4.9,2.7-7.1,2.8c-4.2,0.1-7.3-0.8-10-2
		c0,0-2.4,3.7-4,5.8c2.4,1.1,4.9,2,7.4,2.6c2.9,0.7,5.4,1,8.5,1c11.2-0.7,14.7-11.3,14.7-11.3c1.2-2.6,2-5.3,2.3-8.2
		c0.5-3.7,0.8-7.4,0.8-10.8c0.2-4.1,0.1-8.3-0.3-12.5c-0.3-4-0.4-8.1-0.3-12.2c0.2-1.8,0.3-3.5,0.5-5.2c0.2-1.5,0.5-3,1.2-4.4
		c0.3-0.7,0.7-1.2,1.2-1.7c0.8-0.7,1.4-1.5,1.7-2.4C417.1,135.4,416.6,133.7,414.9,132.4z M347.1,149.4c1.8-1.9,3.9-3.7,6.2-5.4
		c2.2-1.6,4.7-2.6,7.4-2.9c1.6-0.3,3.3-0.1,4.8,0.4c0.9,0.3,1.8,1,1.5,3.3c-0.5,2.3-1.8,4.5-4,6.7c-3.5,3.7-7.9,6.6-13,8.6
		c-4.4,1.8-8.9,3.4-13.3,4.6C339.7,158.9,343.2,153.8,347.1,149.4z M167.1,149.4c1.8-1.9,3.9-3.7,6.2-5.4c2.2-1.6,4.7-2.6,7.4-2.9
		h0.1c0.5-0.1,1.1-0.1,1.6-0.1c1.1,0,2.2,0.2,3.2,0.6c0.9,0.3,1.8,1,1.5,3.3c-0.5,2.3-1.8,4.5-4,6.7c-3.5,3.7-7.9,6.6-13,8.6
		c-4.4,1.8-8.9,3.4-13.3,4.6C159.7,158.9,163.2,153.8,167.1,149.4z M220.7,218.1L220.7,218.1c-1.8,4.1-3.6,8.1-5.4,12.1
		c-1.7,3.9-3.6,7.9-5.6,11.8c-1.3,2.9-2.8,5.9-4.3,8.8c-1.6,2.9-3.3,5.7-5.3,8.3c-0.4,0.7-1.1,1.5-1.8,2.3c-0.8,0.8-1.6,1.5-2.5,2.1
		c-0.8,0.6-1.7,1-2.5,1.2c-0.7,0.2-1.4,0-2.2-0.5c-1.1-0.7-1.8-1.7-2-3.2c-0.3-1.6-0.4-3-0.2-4.4c0-1,0-1.9,0.1-2.7
		c0.1-0.9,0.2-1.7,0.4-2.5c0.8-3.8,2.2-7.6,4.1-11.2c2-3.6,4.2-7.1,6.6-10.3c1.8-2.1,3.7-4.2,5.6-6.1s3.9-3.8,6-5.6
		c2.6-2.3,5.3-4.3,8-6.1c1.8-1.2,3.6-2.4,5.5-3.6L220.7,218.1z M242,166.7c-1.8,2.8-3.6,5.5-5.3,8s-3.6,5-5.8,7.4l0,0
		c-1.8,2.1-3.7,4.2-5.7,6.1c-1.9,1.9-4.1,3.6-6.3,5c-2.1,1.3-4,2.1-5.7,2.6c-1.3,0.3-2.7,0.6-4.2,0.7c-1.4,0.1-2.7,0-3.8-0.4l0,0
		c-1.9-0.9-3-2.4-3.6-4.7c-0.6-2.5-0.6-5,0-7.7s1.5-5.2,2.4-7.4c1.8-3.7,3.9-7.2,6.4-10.4s5.1-6.3,7.9-9c2.1-2,4.3-4,6.6-5.8
		c0.4-0.3,0.8-0.7,1.2-1c2.8-2.1,5.7-4,8.8-5.6c3.4-1.8,7-3.1,10.8-3.9c2.1-0.4,4.2-0.7,6.3-0.7c1.2,0,2.4,0.1,3.6,0.2
		c-2,4.3-4,8.6-6.2,12.8C247.1,157.6,244.6,162.2,242,166.7z M390.2,167.4C390.2,167.4,390.2,167.5,390.2,167.4c0,0.6,0,1.2-0.1,1.8
		C390.2,168.6,390.2,168,390.2,167.4z"/>
</g>
</svg>
