<svg xmlns="http://www.w3.org/2000/svg" width="154.97" height="19.25" viewBox="0 0 154.97 19.25">
  <defs>
    <style>
      .cls-1 {
        fill: #fff;
        fill-rule: evenodd;
      }
    </style>
  </defs>
  <path id="_93_Degrés" data-name="93° Degrés" class="cls-1" d="M2953.76,78.911c-4.74,0-7.5,2.08-7.5,4.96,0,3.32,3.5,4.64,6.56,4.64a9.33,9.33,0,0,0,6.16-2.1c-0.02,3.66-2.34,4.9-5.52,4.9a6.888,6.888,0,0,1-4.86-1.78l-1.9,1.86c1.54,1.5,3.9,2.4,7.06,2.4,5.26,0,8.46-2.88,8.46-7.44S2959.02,78.911,2953.76,78.911Zm-4.28,4.98c0-1.7,1.72-2.5,4.28-2.5,2.44,0,4.3.8,4.96,2.98a8.21,8.21,0,0,1-5.22,1.82C2951.22,86.192,2949.48,85.632,2949.48,83.891Zm16.82,5.1-2.54,1.46a9.536,9.536,0,0,0,7.74,3.32c4.1,0,7.36-1.54,7.36-4.32,0-2.16-2.02-3.14-3.9-3.42a3.453,3.453,0,0,0,3.36-3.2c0-2.62-3.32-3.9-6.98-3.9a8.944,8.944,0,0,0-7.28,3.16l2.32,1.54a5.863,5.863,0,0,1,4.96-2.14c1.76,0,3.72.4,3.72,1.7,0,1.28-1.9,1.72-3.94,1.72h-2.08v2.36h2.08c2.44,0,4.36.32,4.36,1.88,0,1.54-1.98,2.06-4.06,2.06C2969.06,91.212,2967.28,90.412,2966.3,88.992Zm17.78-4.16c1.98,0,3.38-1.16,3.38-2.9,0-1.72-1.4-2.88-3.38-2.88-1.94,0-3.34,1.16-3.34,2.88C2980.74,83.671,2982.14,84.831,2984.08,84.831Zm0-1.4a1.508,1.508,0,1,1,1.74-1.5A1.523,1.523,0,0,1,2984.08,83.431Zm19.12-4.08h-7.44v14h7.44c5.28,0,8.66-2.64,8.66-7S3008.48,79.351,3003.2,79.351Zm-0.24,11.28h-4v-8.56h4c3.36,0,5.64,1.4,5.64,4.28S3006.32,90.632,3002.96,90.632Zm14.94,0.04v-3.08h9.22v-2.68h-9.22v-2.88h11.04v-2.68h-14.22v14h14.42v-2.68H3017.9Zm29.74-5.22h-8.28v2.6h5.28v1.36c-1,1.2-2.72,1.66-4.82,1.66-3.72,0-5.92-1.6-5.92-4.72s2.14-4.72,5.8-4.72a6.219,6.219,0,0,1,4.76,1.76l2.5-1.82a10.312,10.312,0,0,0-7.28-2.66c-5.62,0-9.04,2.76-9.04,7.44s3.42,7.44,9.04,7.44c3.8,0,6.56-1.38,7.96-3.28v-5.06Zm18.98,7.9-4.32-4.98c2.32-.54,3.9-2.02,3.9-4.4,0-3.04-2.58-4.62-6-4.62h-9.66v14h3.18v-4.76h5.06l4.02,4.76h3.82Zm-12.92-7.4v-3.92h6.32c1.68,0,2.92.4,2.92,1.96s-1.24,1.96-2.92,1.96h-6.32Zm27.44-11.42h-4.1l-2.94,3.22h2.4Zm-8.78,16.141v-3.08h9.22v-2.68h-9.22v-2.88h11.04v-2.68h-14.22v14h14.42v-2.68h-11.24Zm21.26-5.94c-2.78-.22-4.78-0.34-4.78-1.54,0-1.28,2.32-1.62,4.22-1.6a9.192,9.192,0,0,1,5.72,1.68l1.76-2.22a12.256,12.256,0,0,0-7.48-2.14c-4.32,0-7.44,1.6-7.44,4.52,0,3,3.72,3.88,7.72,4.22,3.22,0.28,4.66.6,4.66,1.76s-1.44,1.7-4.28,1.7a9.553,9.553,0,0,1-6.8-2.32l-1.84,2.18a12.855,12.855,0,0,0,8.56,2.82c4.96,0,7.58-1.92,7.58-4.68C3101.22,86.032,3098.08,85.091,3093.62,84.731Z" transform="translate(-2946.25 -74.531)"/>
</svg>
