<?xml version="1.0" encoding="utf-8"?>
<!-- Generator: Adobe Illustrator 22.0.0, SVG Export Plug-In . SVG Version: 6.00 Build 0)  -->
<svg version="1.1" id="Calque_1" xmlns="http://www.w3.org/2000/svg" xmlns:xlink="http://www.w3.org/1999/xlink" x="0px" y="0px"
	 viewBox="0 0 416.6 272.3" style="enable-background:new 0 0 416.6 272.3;" xml:space="preserve">
<style type="text/css">
	.st0{fill:#FFFFFF;}
</style>
<g id="logo--93">
	<g>
		<path d="M131.8,227.3c-13.6,0-26.8-2-39.2-5.9c-10.8-3.3-20.2-7.9-28-13.6c1.2,0.1,2.4,0.1,3.5,0.1c5.5,0,11.1-0.6,16.5-1.8
			c7.3-1.6,14.3-4.4,20.8-8.4c5.9-3.8,11.5-8.5,16.7-14c0.5-0.6,1-1.1,1.4-1.6c0.1-0.1,0.2-0.2,0.3-0.3c1.7,0.2,3.4,0.3,5,0.3
			c4.2,0,8.1-0.6,11.7-1.8c-0.2,1.4-0.3,2.8-0.4,4.2c-0.2,3.9,0.5,7.6,2.1,11c1.4,3,3.5,5.5,6.2,7.4c2.7,1.9,5.7,3,8.9,3.3l0.3,0
			c1.1,0.1,2.1,0.2,3.2,0.2c5,0,10-1.3,14.6-3.9c5.6-3.2,10.4-6.4,14.3-9.6l0.1-0.1c0,0,0.6-0.6,0.8-0.8c0,0.2,0.1,0.4,0.1,0.6
			c0.5,3.5,2,6.5,4.6,9.1c0.1,0.2,0.3,0.3,0.4,0.5c-4.5,4.6-9.3,8.5-14.4,11.6C167.5,222.8,150.7,227.3,131.8,227.3z M303.5,226.8
			c-15.1,0-29.8-2.1-43.5-6.2c-9.3-2.7-17.5-6.1-24.5-10.2l3-6.9c0.3-0.6,0.5-0.9,0.5-1.1l5.4-3.6l4.5-3.3c1.5-1.1,3.1-2.4,4.6-3.7
			c2.8-2.2,5-4,6.9-5.8c2.1-2,4.2-4,6.5-6.3l3.4-3.6c5.4,2,10.9,3.5,16.6,4.4c-1.8,3.6-3.1,7.4-3.8,11.3l0,0.1
			c-0.3,1.9-0.2,3.8,0.1,5.6c0.3,1.9,0.9,3.7,2,5.5c1.3,2,2.8,3.4,4.6,4.3c1.6,0.8,3.3,1.2,5.3,1.2c0.5,0,1,0,1.5-0.1
			c3-0.4,5.8-1.4,8.2-3.1c1.9-1.3,3.9-2.8,5.8-4.3c2.7-2.1,5.3-4.6,8.4-7.8c0.6-0.6,1.2-1.2,1.8-1.8c0.4,1.4,0.8,2.7,1.5,4
			c1.4,3,3.5,5.5,6.2,7.4c2.7,1.9,5.7,3,8.9,3.3c1.2,0.1,2.4,0.2,3.6,0.2c5,0,9.9-1.3,14.6-3.9c3.6-1.9,7.2-4.3,11.2-7.2l0.1-0.1
			l0.1-0.1c5.4-4.6,11.3-10.2,16.5-15.8c0.9-1,1.8-1.9,2.5-2.7l-0.1,0.2l0,0.3c-0.1,0.6-0.2,1.2-0.3,1.7l0,0.1
			c0,0.2-0.1,0.3-0.1,0.5c-0.1,0.2-0.1,0.4-0.2,0.6l0,0.1l0,0.1c-0.1,0.4-0.2,1-0.4,1.6c-0.1,0.2-0.1,0.4-0.2,0.6
			c0,0.1-0.1,0.2-0.1,0.3c-0.2,0.4-0.3,0.9-0.4,1.3c-0.1,0.3-0.2,0.6-0.3,1c-0.1,0.2-0.2,0.4-0.2,0.6l-0.1,0.2
			c-0.2,0.7-0.6,1.6-1,2.5l-0.1,0.1l0,0.1c0,0.1-0.1,0.2-0.1,0.2c-0.1,0.1-0.1,0.3-0.2,0.4c-0.1,0.3-0.2,0.6-0.4,0.8
			c-0.2,0.3-0.3,0.7-0.5,1c-0.1,0.1-0.1,0.3-0.2,0.4c0,0.1-0.1,0.1-0.1,0.2l-0.1,0.2l-0.1,0.1c-0.1,0.2-0.3,0.5-0.4,0.7
			c-0.2,0.4-0.4,0.7-0.6,1.1c-0.1,0.2-0.2,0.4-0.4,0.7l-0.5,0.8v0.1c0,0,0,0.1-0.1,0.1c-0.2,0.3-0.3,0.5-0.5,0.8
			c-0.1,0.2-0.2,0.4-0.3,0.5c-0.1,0.1-0.1,0.2-0.2,0.3c-0.5,0.7-1,1.4-1.5,2c-0.2,0.2-0.4,0.4-0.5,0.7c0,0-0.3,0.3-0.3,0.3l-0.1,0.1
			c-0.1,0.2-0.3,0.4-0.4,0.5c-0.2,0.3-0.5,0.6-0.7,0.8l-0.7,0.7c-0.3,0.3-0.6,0.6-0.8,0.9c-0.2,0.2-0.4,0.5-0.7,0.7l-1,1l-0.1,0.1
			l0,0c-0.1,0.1-0.3,0.2-0.4,0.3c-2.3,2.1-4.4,4-6.5,5.5C349.6,221.4,329.1,226.8,303.5,226.8z M296.7,194.7c0-0.4,0-0.8,0.1-1.2
			c0.8-3.1,2-6,3.5-8.6c0.4-0.6,0.7-1.2,1-1.8c0.2-0.4,0.5-0.8,0.7-1.2c3.6,0,6.8-0.2,9.7-0.6l-1.2,1.3c-0.5,0.5-1,1-1.5,1.6
			c-1.5,1.6-3.1,3.3-4.7,4.9c-2,2-4.1,3.7-6.3,5C297.6,194.2,297.1,194.4,296.7,194.7z M67.7,194.4c-1.1,0-2.3,0-3.5-0.1l13.9-31.4
			l1.5,1c9.2,6.3,18.1,10.9,26.3,13.9c0,0,2.1,0.7,2.6,0.8c-1.7,1.6-3.6,3.1-5.7,4.6c-4.5,3.2-9.2,5.7-13.7,7.5
			c-4.7,1.9-9.7,3-15,3.3l-0.2,0C71.9,194.3,69.8,194.4,67.7,194.4z M341,192.7c-0.5,0-1.1,0-1.7-0.1l-0.2,0H339
			c-1.2,0-2.3-0.4-3.4-1.3c-0.5-0.6-0.8-1.2-1-2c-0.2-0.8-0.3-1.7-0.4-2.5c-0.1-0.4-0.1-0.8-0.2-1.1c0-2.8,0.5-6,1.3-9.3
			c1.6-0.5,2.8-0.8,2.9-0.9l0.5-0.2c0.7-0.2,1.4-0.4,2-0.6l0.1,0l3.1-0.9c3.3-1,6.6-2.3,9.6-3.5c3.7-1.6,6.7-3.2,9.4-5
			c1.8-1.2,3.5-2.6,5.5-4.2c2.1-1.7,3.8-3.7,5.3-5.7c1.4-1.9,2.6-4.2,3.4-6.6c0.9-2.8,0.9-5.8,0-8.9l-0.1-0.2
			c-1.4-4.1-4.3-7-8.4-8.3c-2.3-0.7-4.6-1-6.8-1c-1.2,0-2.5,0.1-3.7,0.3c-3.1,0.5-6,1.7-8.9,3.5c-2.7,1.8-5,3.5-7,5.3
			c-4,3.5-7.7,7.8-10.9,12.6c-1.1-3-3-5.5-5.5-7.2c-2.6-1.7-7.7-3.9-17.4-4.6c-1.1-0.3-2.2-0.5-3.4-0.5c-0.4,0-0.8,0-1.1,0
			c-0.2,0-0.5,0-0.8,0c0.1-0.3,0.3-0.5,0.4-0.8l0.1-0.1l0.1-0.1c0.6-1.3,1.1-2.4,1.4-3.7c0.5-3.1-1-5.8-4-7.2c-1-0.5-2-0.7-3-0.7
			c-2,0-3.8,1-5,2.6l-3.8,4.2l-4.9,5.9H268V95.1h28.7c10.9,0,18.4-1.5,23.1-4.5c4.5-2.8,6.8-7.4,6.8-13.8c0-6.9-2.1-12.1-6.5-15.9
			c-4.4-3.8-10.7-5.7-18.9-5.7c-8.3,0-17.1,1.6-26.1,4.8c-9.3,3.2-18.2,7.8-26.5,13.6l-1.4,1.1l-18.3-41.2l0.9-0.8
			c8.5-6.8,19.8-12.4,33.6-16.4c13.7-4.1,27.8-6.2,42.1-6.2c14.8,0,28.4,2.4,40.3,7c11.3,4.7,20.4,11.7,26.7,20.6
			c6.3,9,9.5,19.5,9.5,31.2c0,11.4-2.9,21.4-8.8,29.7c-3.9,5.6-9,10.2-15.2,13.8l-4.8,2.8l2.8,1.4l-0.5,0.1
			c-2.2,0.1-4.2,1.4-5.5,3.6l-0.1,0.1c-1.4,2.6-0.9,5.6,1.2,7.7c1.4,1.4,3,2.1,4.7,2.1h1.1c0.6,0,1.3-0.1,2.2-0.3l0.1,0
			c0.3-0.1,0.7-0.2,1.1-0.2l12.2-1.4c1.4,1.4,2.7,3,4.2,4.9c4.8,6.4,8,14,9.5,22.6c-6.9,7.9-15.7,17.8-16.4,18.7
			c-1.3,1.5-2.6,2.8-4,4c-2.5,2.3-5.1,4.4-7.6,6.4c-2.3,1.8-4.8,3.5-7.5,5.1c-1.9,0.8-4,1.7-6.1,2.3
			C343.5,192.5,342.3,192.7,341,192.7z M161.3,192.7c-0.5,0-1.1,0-1.7-0.1l-0.2,0h-0.2c-1.2,0-2.3-0.4-3.4-1.3c-0.5-0.6-0.8-1.2-1-2
			c-0.2-1.1-0.4-2.1-0.5-3.1l-0.1-0.5c0-2.6,0.6-6.1,1.4-9.6c0.2-0.1,0.5-0.1,0.7-0.2c0.6-0.1,1.2-0.3,1.8-0.5
			c1.1-0.3,2.1-0.6,2.7-0.7l0.5-0.1l3-0.9c3.3-1,6.6-2.3,9.6-3.5c3.7-1.6,6.7-3.2,9.4-5c1.8-1.2,3.5-2.6,5.5-4.2
			c2.1-1.7,3.8-3.7,5.3-5.7c1.4-1.9,2.6-4.2,3.4-6.6c0.9-2.8,0.9-5.8,0-8.9l-0.1-0.2c-1.4-4.1-4.3-7-8.4-8.3c-2.3-0.7-4.6-1-6.8-1
			c-1.2,0-2.5,0.1-3.7,0.3c-3.1,0.6-6.1,1.8-8.9,3.5c-2.7,1.8-5,3.5-7,5.3c-1.2,1.1-2.5,2.3-4,3.8c-2.2,1.4-4.6,2.8-7.4,4.2
			c-2.5,1.2-5,2.1-7.4,2.8l-0.1,0c-0.2,0-0.4,0.1-0.7,0.2c-0.5,0.1-1,0.3-1.5,0.4c-0.6,0.2-1.2,0.3-1.8,0.5l-0.1,0l-0.1,0
			c-0.2,0-0.4,0.1-0.6,0.1c-0.2,0-1.6,0.3-1.6,0.3l-0.5,0.1c-0.6,0.1-1.2,0.3-1.7,0.3c-0.2,0-0.5,0-0.7,0.1l-0.2,0h-0.2l-0.1,0
			c-1,0.2-2,0.3-3.2,0.4c-0.3,0-0.6,0-0.9,0.1c-0.1,0-0.2,0-0.2,0H129c-0.7,0-1.4,0-2.1,0.1c-0.6,0-1.2,0-1.8,0
			c-12.1,0-23.3-3-33.2-9c-8.8-5.3-15.9-12.6-21.3-21.7c1.4-3.4,2.7-6.5,4-9.6c2.5-6,5.5-12.4,9.3-19.5c1.2-2.3,2.5-4.6,4.2-7.2
			c1.3-2,2.7-4,4.6-6.2l2.6-2.4l0.2-0.2c1.2-1.5,1.6-3.4,1.3-5.4c0-0.2-0.1-0.4-0.1-0.6c1.1,0.2,2.3,0.4,3.4,0.6
			c5.3,1.1,10.3,3.1,14.9,5.9c-0.1,1.2-0.1,2.3-0.1,3.5c0,8.5,2.1,14.9,6.4,19.6c3.8,4.3,9,6.6,15.5,7c0.8,0.1,1.4,0.1,2,0.1
			c2.1,0,4.1-0.2,6.6-0.8c4.3-1,7.9-3.1,11-6.5c4.5-4.9,6.6-11.3,6.6-19.4c0-7.9-2.2-14.2-6.8-19.2c-4.4-4.9-10.3-7.4-17.4-7.4
			c-7.4,0-13.2,2.4-17.5,7.2c-0.8,0.9-1.6,1.9-2.2,2.8c-5.3-2.9-10.7-4.9-16.1-6.2l-0.1,0c-4.6-0.8-9.3-1.3-14.1-1.5
			c-1.6-0.1-3.3-0.1-5-0.1c-2.9,0-5.9,0.1-9.2,0.3c-3.5,0.3-7,0.8-10.6,1.5c1.5-4.7,3.5-9.2,5.9-13.3c6.3-11.2,15.3-20,26.7-26.3
			C108,13.1,121,10,135.3,10c28.5,0,50.8,9.4,66.4,27.8c15.4,18.2,23.4,44.6,23.8,78.5c0,7.6-0.4,15-1.3,22
			c-4.9,3.1-9.3,6.7-13.2,10.7c-4.6,4.7-8.2,9.2-10.9,13.5c-0.2,0.3-0.4,0.6-0.6,1c-0.1,0.2-0.3,0.5-0.4,0.7l-0.2,0.3l-4.4,5.3
			l-4.1,4.6c-1.3,1.5-2.6,2.8-4,4c-2.5,2.3-5.1,4.4-7.6,6.4c-2.3,1.8-4.8,3.5-7.5,5.1c-1.9,0.8-4,1.7-6.1,2.3
			C163.8,192.5,162.6,192.7,161.3,192.7z M204.7,191.6c-0.1-0.3-0.2-0.6-0.3-0.9c-0.5-2-0.5-4.1,0-6.3c0.6-2.6,1.3-4.9,2.2-6.8
			c1.6-3.3,3.7-6.6,6.1-9.8c1.9-2.6,4-5.1,6.8-8.1c-1.6,5.6-3.5,10.9-5.7,15.8C211.3,181.1,208.2,186.5,204.7,191.6z M254.4,169
			c0.9,0.5,1.7,1,2.6,1.4c-2.3,2.3-4.5,4.6-5.8,5.9L254.4,169z M343.2,159.6c1.9-3,3.9-5.7,6.2-8.1c1.6-1.6,3.5-3.3,5.8-5
			c1.8-1.3,3.8-2.1,5.9-2.3l0.1,0l0.1,0c0.4-0.1,0.8-0.1,1.2-0.1c0.6,0,1.1,0.1,1.6,0.2c0,0,0,0.1,0,0.1c-0.4,1.7-1.4,3.4-3.2,5.1
			c-3.4,3.5-7.4,6.1-11.9,7.9C347.1,158.1,345.1,158.9,343.2,159.6z M163.1,159.5c1.9-3.1,4-5.8,6.2-8.1c1.6-1.7,3.5-3.4,5.8-5
			c1.8-1.3,3.8-2.1,5.8-2.3h0.1l0.4-0.1c0.2,0,0.7,0,1,0c0.6,0,1.2,0.1,1.8,0.3c0,0,0,0.1,0,0.1c-0.4,1.7-1.4,3.4-3.2,5.1
			c-3.3,3.5-7.3,6.1-11.9,7.8C167,158,165,158.8,163.1,159.5z M63.1,105c-1.9-6.9-2.8-14.1-2.8-21.6c0-3.4,0.2-6.8,0.6-10.1
			c0.8-0.2,1.6-0.4,2.4-0.6c6.1-1.3,12.4-2,19-2.2c0.3,0,0.6,0,1,0c-0.4,0.4-0.9,0.9-1.3,1.3l-0.1,0.1c-2.1,2.2-3.9,4.8-5.9,7.9
			c-1.8,2.9-3.4,5.7-4.7,8.5C68.1,94.5,65.4,100,63.1,105z"/>
		<path class="st0" d="M305.5,13c14.4,0,27.6,2.3,39.2,6.8c10.8,4.5,19.4,11.1,25.4,19.6c6,8.5,9,18.4,9,29.4
			c0,10.8-2.8,20.2-8.2,28c-3.7,5.2-8.4,9.6-14.2,13l-9.6,5.6l2.2,1.1c-0.6,0.6-1.2,1.4-1.7,2.2l-0.1,0.1l-0.1,0.1
			c-2,3.8-1.3,8.2,1.8,11.3c0.2,0.2,0.3,0.3,0.5,0.5c-0.7,0.4-1.4,0.8-2.1,1.2l0,0l0,0c-2.8,1.8-5.2,3.7-7.3,5.5
			c-3.1,2.7-5.9,5.8-8.6,9.2c-1.2-1.6-2.6-2.9-4.2-4c-4.1-2.7-10.4-4.4-18.6-5c-0.4-0.1-0.8-0.2-1.3-0.3c0.1-0.4,0.2-0.8,0.3-1.2
			l0-0.1l0-0.1c0.7-4.4-1.4-8.3-5.7-10.3l-0.1,0l-0.1,0c-1.4-0.6-2.8-0.9-4.2-0.9c-2.9,0-5.6,1.4-7.3,3.7l-3.6,3.9l-0.1,0.1
			l-0.1,0.1l-4,4.8h-12V98.1h25.7c11.4,0,19.5-1.6,24.7-4.9c5.4-3.4,8.2-8.9,8.2-16.4c0-7.7-2.5-13.8-7.6-18.1
			c-4.9-4.3-12-6.5-20.8-6.5c-8.7,0-17.8,1.7-27.1,4.9c-9,3.1-17.7,7.5-25.7,12.9l-15.9-35.8c8.1-6.3,18.7-11.4,31.7-15.2
			C277.6,15,291.5,13,305.5,13 M135.3,13c27.6,0,49.1,9,64.1,26.8c14.9,17.6,22.7,43.4,23.1,76.6c0,7-0.4,13.8-1.1,20.2
			c-4.6,3-8.8,6.5-12.6,10.3c-4.8,4.9-8.4,9.4-11.3,13.9c-0.3,0.4-0.5,0.8-0.7,1.1c-0.1,0.2-0.2,0.3-0.3,0.5l-0.1,0.1l-4.3,5.2
			l-4,4.5l0,0l0,0c-1.2,1.4-2.4,2.6-3.7,3.7l-0.1,0.1l-0.1,0.1c-2.3,2.2-4.8,4.1-7.4,6.2c-2.2,1.7-4.5,3.3-7,4.8
			c-1.8,0.8-3.7,1.5-5.6,2.1l0,0l0,0c-1,0.3-1.9,0.5-2.8,0.5c-0.4,0-0.8,0-1.3-0.1l-0.4-0.1h-0.4c-0.3,0-0.7-0.1-1.2-0.4
			c-0.1-0.1-0.1-0.3-0.2-0.5c-0.2-1.1-0.4-2-0.5-3l0-0.2c0-1.9,0.4-4.4,0.9-6.9c0.3-0.1,0.5-0.1,0.8-0.2l0.1,0l0.1,0
			c1-0.3,2-0.5,2.5-0.7l0.4-0.1l0.1,0l0.1,0l3-0.9l0,0l0,0c3.4-1.1,6.7-2.3,9.7-3.6l0.1,0l0.1,0c3.8-1.6,6.9-3.3,9.8-5.2
			c1.9-1.3,3.8-2.7,5.8-4.4c2.3-1.9,4.2-4,5.8-6.3c1.6-2.2,2.9-4.7,3.8-7.5l0,0l0,0c1.1-3.3,1.1-6.9,0.1-10.5l0-0.2l-0.1-0.2
			c-1.7-5-5.4-8.6-10.4-10.2l-0.1,0l-0.1,0c-2.5-0.7-5.1-1.1-7.6-1.1c-1.4,0-2.8,0.1-4.2,0.3l-0.1,0l-0.1,0c-3.4,0.6-6.8,2-9.9,3.9
			l0,0l0,0c-2.8,1.8-5.2,3.7-7.3,5.5c-1.3,1.1-2.5,2.3-3.9,3.8c-2,1.3-4.2,2.5-6.8,3.8c-2.4,1.1-4.7,2-7,2.7c-0.2,0-0.5,0.1-0.9,0.2
			c-0.4,0.1-0.9,0.2-1.3,0.4c-0.6,0.2-1.2,0.3-1.7,0.5c-0.2,0-0.4,0.1-0.7,0.1c-0.2,0-0.4,0.1-0.6,0.1c-0.2,0-0.5,0.1-0.8,0.1
			l-0.2,0l-0.2,0l-0.4,0.1c-0.5,0.1-1,0.2-1.4,0.3c-0.3,0-0.6,0.1-0.8,0.1h-0.2l-0.5,0.1c-0.9,0.2-1.8,0.2-2.8,0.3
			c-0.5,0-0.9,0.1-1.1,0.1l0,0H129c-0.8,0-1.5,0-2.2,0.1c-0.6,0-1.2,0-1.7,0c-11.6,0-22.2-2.9-31.6-8.5
			c-7.9-4.8-14.5-11.3-19.5-19.4c1.2-2.8,2.3-5.5,3.4-8.1l0-0.1l0-0.1c2.4-5.9,5.4-12.1,9.1-19.1l0-0.1l0-0.1c1.1-2.1,2.4-4.3,4-6.8
			l0,0l0,0c1.1-1.8,2.5-3.6,4.2-5.6l2.3-2.1l0.4-0.3l0.3-0.4c0.8-1,1.6-2.4,1.9-4.2c4.2,0.9,8.3,2.4,12.1,4.6c0,0.6,0,1.2,0,1.9
			c0,9.2,2.3,16.3,7.1,21.6c4.3,4.9,10.2,7.5,17.5,8c0.9,0.1,1.7,0.1,2.3,0.1c3.1,0,5.6-0.5,7.2-0.8l0,0l0,0c4.8-1.1,9-3.6,12.5-7.4
			l0,0l0,0c4.9-5.5,7.4-12.5,7.4-21.4c0-8.6-2.5-15.7-7.6-21.2c-5-5.6-11.6-8.4-19.6-8.4c-8.2,0-14.8,2.7-19.6,8.2
			c-0.3,0.3-0.6,0.7-0.9,1c-4.8-2.4-9.6-4.1-14.6-5.2l-0.1,0l-0.1,0c-4.7-0.8-9.6-1.4-14.5-1.6c-1.7-0.1-3.4-0.1-5.2-0.1
			c-3,0-6.1,0.1-9.4,0.3l0,0l0,0c-1.9,0.2-3.8,0.4-5.7,0.7c1.1-2.8,2.4-5.4,3.9-8l0,0l0,0C78.4,36.4,87,27.9,98,22
			C108.9,16,121.5,13,135.3,13 M76.4,73.8c-1,1.3-2,2.8-3,4.4c-1.9,3-3.5,5.9-4.8,8.7c-1.6,3.1-3.1,6-4.4,8.7
			c-0.6-4-0.9-8.1-0.9-12.3c0-2.6,0.1-5.2,0.4-7.7c0.1,0,0.1,0,0.2,0l0,0l0,0C68,74.8,72.1,74.2,76.4,73.8 M380.8,145.9
			c1.1,2.8,1.9,5.7,2.5,8.8c-6.6,7.5-14.7,16.8-15.5,17.6l0,0l0,0c-1.2,1.4-2.4,2.6-3.7,3.7l-0.1,0.1l-0.1,0.1
			c-2.3,2.2-4.8,4.1-7.4,6.2c-2.2,1.7-4.5,3.3-7,4.8c-1.8,0.8-3.7,1.5-5.6,2.1l0,0l0,0c-1,0.3-1.9,0.5-2.8,0.5c-0.4,0-0.8,0-1.3-0.1
			l-0.4-0.1H339c-0.3,0-0.7-0.1-1.2-0.4c-0.1-0.1-0.1-0.3-0.2-0.5c-0.2-0.8-0.3-1.6-0.4-2.3c0-0.3-0.1-0.6-0.1-0.9
			c0-2,0.3-4.3,0.9-6.7c0.6-0.2,1.1-0.3,1.2-0.4l0.5-0.2c0.7-0.2,1.2-0.4,1.8-0.5l0.3-0.1l0.3-0.1l3-0.9l0,0l0,0
			c3.4-1.1,6.7-2.3,9.7-3.6l0.1,0l0.1,0c3.8-1.6,6.9-3.3,9.8-5.2c1.9-1.3,3.8-2.7,5.8-4.4c2.3-1.9,4.2-4,5.8-6.3
			c1.6-2.2,2.9-4.7,3.8-7.5l0,0l0,0C380.4,148.5,380.7,147.2,380.8,145.9 M178.2,148c-1.6,1.6-3.4,3-5.4,4.2c1.2-1.1,2.5-2.2,4-3.3
			C177.3,148.5,177.7,148.2,178.2,148 M357.8,148.3c-1.4,1.3-2.9,2.5-4.5,3.5c1.1-1,2.3-1.9,3.5-2.9
			C357.2,148.6,357.5,148.4,357.8,148.3 M79.4,167.4c8,5.3,15.8,9.5,23.1,12.3c-0.5,0.4-0.9,0.7-1.4,1.1c-4.4,3.1-8.8,5.5-13.2,7.2
			c-4.3,1.8-9.1,2.8-14,3.1l-0.2,0l-0.2,0c-1.6,0.2-3.2,0.3-4.8,0.3L79.4,167.4 M271.2,179.6c3.7,1.3,7.6,2.3,11.4,3.2
			c-1.1,2.8-1.9,5.6-2.4,8.5l0,0.1l0,0.1c-0.3,2.2-0.3,4.3,0.1,6.4c0.3,2.3,1.1,4.5,2.4,6.6l0,0.1l0,0c1.5,2.4,3.5,4.2,5.8,5.3
			c2,1,4.2,1.5,6.6,1.5c0.6,0,1.2,0,1.8-0.1l0.1,0l0.1,0c3.5-0.4,6.6-1.6,9.5-3.6c2-1.4,4-2.9,6-4.4c2.3-1.8,4.6-3.9,7.1-6.4
			c1.6,3.4,4.1,6.3,7.2,8.4c3.1,2.1,6.5,3.4,10.2,3.8c1.3,0.2,2.7,0.2,4,0.2c5.5,0,10.9-1.4,16-4.2c3.7-2,7.5-4.4,11.6-7.4l0.2-0.1
			l0.2-0.1c3.5-3,7.1-6.3,10.7-9.8l0,0c-0.1,0.1-0.1,0.3-0.2,0.4c-0.1,0.2-0.2,0.5-0.3,0.7c-0.2,0.3-0.3,0.7-0.5,1
			c-0.1,0.1-0.1,0.3-0.2,0.4l-0.1,0.1l-0.2,0.3c-0.1,0.2-0.2,0.4-0.3,0.6c-0.2,0.4-0.4,0.8-0.7,1.2c0,0.1-0.1,0.2-0.2,0.4l-1,1.5
			v0.1c0,0-0.1,0.1-0.1,0.1c-0.2,0.2-0.3,0.4-0.4,0.6c0,0-0.1,0.1-0.1,0.2c-0.4,0.6-0.8,1.2-1.3,1.8c-0.2,0.2-0.4,0.5-0.6,0.7
			l-0.2,0.2l-0.2,0.3c-0.2,0.2-0.3,0.4-0.5,0.6c-0.1,0.2-0.3,0.4-0.4,0.5l-0.7,0.7c-0.3,0.3-0.6,0.7-0.9,1c-0.2,0.2-0.4,0.4-0.6,0.6
			l-0.8,0.8l-0.4,0.4l0,0c-0.1,0.1-0.1,0.1-0.2,0.2c-2.2,2.1-4.2,3.8-6.3,5.3c-14.2,10.3-34.1,15.6-59.1,15.6
			c-14.8,0-29.2-2-42.7-6.1c-8-2.3-15.2-5.2-21.4-8.6l1.9-4.4l0,0l0,0c0-0.1,0-0.1,0.1-0.1l4.7-3.1l0.1-0.1l0.1-0.1l4.5-3.3
			c1.6-1.2,3.2-2.4,4.8-3.8c2.8-2.2,5.1-4.1,7-6c2.1-2,4.3-4.1,6.5-6.3l0.1-0.1l0.1-0.1L271.2,179.6 M137.3,184.3
			C137.3,184.3,137.3,184.3,137.3,184.3c-0.3,4.5,0.5,8.6,2.4,12.4c1.6,3.5,4.1,6.5,7.2,8.6c3.1,2.1,6.6,3.4,10.2,3.8l0,0l0,0l0.2,0
			c1.1,0.1,2.2,0.2,3.5,0.2c5.5,0,11-1.5,16.1-4.2l0,0l0,0c4.5-2.5,8.5-5.1,11.9-7.7c0.7,1.7,1.6,3.3,2.7,4.7
			c-3.7,3.5-7.7,6.6-11.8,9.2c-13.7,8.6-29.9,13-48.2,13c-13.3,0-26.2-1.9-38.3-5.7c-6.9-2.1-13.2-4.8-18.9-7.9
			c3.6-0.3,7.2-0.8,10.8-1.6c7.7-1.6,15-4.6,21.8-8.8l0.1,0l0.1,0c6-3.9,11.7-8.8,17.1-14.4l0.1-0.1l0.1-0.1
			c0.2-0.3,0.5-0.5,0.7-0.8c1.3,0.1,2.5,0.2,3.8,0.2C131.9,185.1,134.7,184.8,137.3,184.3 M304.3,184.9c-0.4,0.4-0.9,0.9-1.3,1.3
			c0.3-0.4,0.5-0.9,0.8-1.3C303.9,184.9,304.1,184.9,304.3,184.9 M305.5,7c-14.5,0-29,2.1-43,6.3c-14.2,4.2-25.8,9.9-34.6,17
			l-2.7,2.2l20.7,46.7l4.4-3.2c8.2-5.7,16.9-10.1,25.8-13.2c8.8-3.1,17.3-4.6,25.1-4.6c7.4,0,13.1,1.7,16.9,5
			c3.7,3.2,5.5,7.6,5.5,13.6c0,5.4-1.7,9-5.4,11.3c-4.2,2.7-11.5,4-21.5,4H265v51.2h20.8l5.8-7l3.8-4.2c0.7-1,1.6-1.5,2.7-1.5
			c0.5,0,1.1,0.1,1.7,0.4c1.7,0.8,2.6,2.1,2.3,3.9c-0.2,1-0.6,1.9-1.1,2.9c-0.5,0.8-0.9,1.6-1.2,2.3c-0.2,0.5-0.3,0.9-0.5,1.4
			c-0.1,0.3-0.2,0.6-0.2,1v0.2L299,143c0.1,0,0.3,0.1,0.5,0.1c0.8,0.1,1.5,0.1,2.3,0.1s1.6,0,2.3-0.1c0.3,0,0.6,0,0.9,0
			c1,0,2,0.1,2.9,0.4c9.1,0.6,13.9,2.5,16.3,4.1c3.7,2.5,5.5,6.7,5.5,12.8c0,0.3,0,0.6,0,0.9c0.7-1.4,1.4-2.8,2.2-4.1
			c3.4-5.8,7.5-11,12.4-15.3c2-1.8,4.3-3.5,6.6-5c2.4-1.5,5-2.6,7.8-3.1c1.1-0.2,2.1-0.3,3.2-0.3c1.9,0,3.9,0.3,5.9,0.9
			c3.2,1,5.4,3.2,6.5,6.4c0.7,2.5,0.7,4.9,0,7.1c-0.7,2.1-1.7,4.1-3,5.9c-1.3,1.9-2.9,3.6-4.7,5.1c-1.8,1.5-3.5,2.9-5.2,4
			c-2.9,1.9-5.9,3.4-8.9,4.7c-3,1.2-6.1,2.4-9.3,3.4c-1,0.3-2,0.6-3,0.9c-1,0.2-1.9,0.5-2.9,0.8c0,0-2.2,0.7-4.4,1.3
			c-1.2,4.1-1.9,8.4-1.9,12c0.2,1.1,0.4,2.5,0.7,4c0.3,1.3,0.9,2.5,1.8,3.5c1.7,1.4,3.5,2.1,5.5,2.1c0.7,0.1,1.4,0.1,2,0.1
			c1.6,0,3.1-0.2,4.7-0.7c2.3-0.7,4.5-1.6,6.6-2.5c2.7-1.6,5.4-3.4,8-5.4c2.6-2.1,5.2-4.2,7.7-6.5c1.5-1.3,2.9-2.7,4.3-4.3
			c0.9-1,10.6-12,17.4-19.8c-1.4-9.5-4.8-18-10.3-25.3c-1.7-2.2-3.5-4.3-5.5-6.2l-13.7,1.6c-0.5,0.1-1,0.2-1.4,0.3
			c-0.5,0.1-1.1,0.2-1.6,0.2h-0.7h-0.4c-0.7,0-1.6-0.2-2.6-1.2c-1.2-1.2-1.5-2.7-0.7-4.2c1-1.7,2.2-2.1,3.2-2.1l1.6-0.3
			c1.4-0.2,2.9-0.4,4.3-0.6c1.3-0.1,2.6-0.2,4-0.3c-2-1.3-4-2.4-6.2-3.5c6.5-3.8,11.9-8.7,16.1-14.7c6.2-8.8,9.3-19.4,9.3-31.4
			c0-12.4-3.4-23.4-10.1-32.9c-6.7-9.4-16.1-16.7-28.1-21.7C334.8,9.5,321,7,305.5,7L305.5,7z M135.3,7c-14.9,0-28.4,3.3-40.2,9.7
			c-11.9,6.5-21.3,15.7-27.9,27.4C63.8,50,61.3,56.3,59.6,63c5-1.3,10.1-2.2,15.1-2.6c3-0.2,6-0.3,9-0.3c1.6,0,3.3,0,4.9,0.1
			c4.6,0.2,9.2,0.7,13.7,1.5c5.8,1.3,11.2,3.5,16.3,6.4c0.5,0.3,1,0.7,1.6,1c0.9-1.8,1.9-3.5,3.3-5c3.7-4.2,8.7-6.2,15.2-6.2
			c6.3,0,11.3,2.1,15.2,6.4c4,4.4,6,10,6,17.2c0,7.4-1.9,13.1-5.8,17.4c-2.6,2.8-5.7,4.7-9.5,5.6c-1.8,0.4-3.7,0.7-5.9,0.7
			c-0.6,0-1.1,0-1.7-0.1c-5.8-0.3-10.3-2.3-13.6-6c-3.8-4.2-5.6-10-5.6-17.6c0-1.7,0.1-3.3,0.3-4.9c-0.3-0.2-0.5-0.4-0.7-0.6
			c-5.2-3.4-10.8-5.7-16.8-6.9c-5.5-1.1-11.2-1.6-16.9-1.6c-0.5,0-1,0-1.5,0c-6.4,0.2-12.9,0.9-19.5,2.3c-1.5,0.3-3,0.7-4.5,1.2
			c-0.6,4-0.9,8.2-0.9,12.4c0,10.8,1.9,20.9,5.5,30.1c0.2-0.4,0.3-0.8,0.5-1.2c3.1-7.6,6.8-15.2,10.7-22.7c1.3-2.8,2.8-5.5,4.5-8.2
			c1.7-2.7,3.5-5.2,5.6-7.5c0.9-0.9,1.8-1.8,2.9-3c0.9-1,1.9-1.4,3-1.4c0.6,0,1.2,0.1,1.8,0.4c1.1,0.4,1.8,1.3,2,2.6
			c0.2,1.2,0,2.2-0.7,3.1L90.5,78c-1.7,2-3.4,4.2-4.9,6.6c-1.5,2.3-3,4.8-4.3,7.4c-3.6,6.7-6.8,13.3-9.4,19.7
			c-1.6,3.7-3.1,7.3-4.6,11c5.7,10.1,13.5,18.2,23.1,24c10.3,6.2,21.9,9.4,34.7,9.4c1.3,0,2.6-0.1,3.9-0.1c0.2,0,0.4,0,0.6,0
			c0.4,0,0.8-0.1,1.3-0.1c1.2-0.1,2.3-0.2,3.5-0.4c0.3,0,0.7-0.1,1-0.1c0.9-0.1,1.7-0.3,2.6-0.5c0.6-0.1,1.1-0.2,1.7-0.3
			c0.3-0.1,0.6-0.1,0.9-0.2c1.1-0.3,2.3-0.6,3.4-0.9c0.2-0.1,0.4-0.1,0.7-0.2c2.7-0.8,5.3-1.8,7.9-3c2.9-1.4,5.6-2.9,8.1-4.6
			c1.3-1.4,2.6-2.7,4-3.9c2-1.8,4.3-3.5,6.6-5c2.4-1.5,5.1-2.6,7.8-3.1c1.1-0.2,2.1-0.3,3.2-0.3c1.9,0,3.9,0.3,5.9,0.9
			c3.2,1,5.4,3.2,6.5,6.4c0.7,2.5,0.7,4.9,0,7.1c-0.7,2.1-1.7,4.1-3,5.9c-1.3,1.9-2.9,3.6-4.7,5.1c-1.8,1.5-3.5,2.9-5.2,4
			c-2.9,1.9-5.9,3.4-8.9,4.7c-3,1.2-6.1,2.4-9.3,3.4c-1,0.3-2,0.6-3,0.9c-0.4,0.1-1.7,0.4-3.1,0.8c-1.5,0.4-3.3,0.8-4.2,1.1
			c-1.2,4.2-2,8.8-2,12.3c0.2,1.2,0.4,2.5,0.7,4c0.3,1.3,0.9,2.5,1.8,3.5c1.7,1.4,3.5,2.1,5.5,2.1c0.7,0.1,1.4,0.1,2,0.1
			c1.6,0,3.1-0.2,4.7-0.7c2.3-0.7,4.5-1.6,6.6-2.5c2.7-1.6,5.4-3.4,8-5.4c2.6-2.1,5.2-4.2,7.7-6.5c1.5-1.3,2.9-2.7,4.3-4.3l4.1-4.6
			l4.5-5.4l0.3-0.4c0.4-0.6,0.7-1.2,1.1-1.8c2.8-4.5,6.4-8.8,10.5-13c4.1-4.2,8.7-7.8,13.6-10.8c0.1-0.1,0.2-0.1,0.3-0.2
			c1-7.6,1.5-15.5,1.5-23.8c-0.4-34.4-8.5-61.5-24.5-80.4C187.8,16.7,164.7,7,135.3,7L135.3,7z M182.4,140.9c-0.5,0-1.1,0-1.6,0.1
			h-0.1c-2.6,0.3-5.1,1.3-7.4,2.9c-2.3,1.7-4.4,3.5-6.2,5.4c-4,4.3-7.4,9.5-10.3,15.3c4.4-1.2,8.9-2.8,13.3-4.6
			c5.1-1.9,9.5-4.8,13-8.5c2.2-2.2,3.5-4.4,4-6.7c0.3-2.3-0.6-3-1.5-3.3C184.6,141.1,183.5,140.9,182.4,140.9L182.4,140.9z
			 M362.5,140.9c-0.6,0-1.1,0.1-1.7,0.2c-2.7,0.3-5.2,1.3-7.4,2.9c-2.3,1.7-4.4,3.5-6.2,5.4c-4,4.4-7.4,9.5-10.3,15.3
			c4.4-1.2,8.9-2.8,13.3-4.6c5-2,9.3-4.9,12.9-8.6c2.2-2.2,3.5-4.4,4-6.7c0.3-2.3-0.6-3-1.5-3.3
			C364.6,141.1,363.5,140.9,362.5,140.9L362.5,140.9z M224.7,151c-2.3,1.8-4.6,3.8-6.6,5.8c-2.7,2.8-5.4,5.8-7.8,9.1
			c-2.4,3.2-4.6,6.7-6.4,10.4c-1,2.2-1.8,4.7-2.4,7.4c-0.6,2.6-0.6,5.2,0,7.7c0.6,2.3,1.8,3.9,3.6,4.7c4.4-5.8,8.3-12.3,11.5-19.4
			C220.1,168.9,222.8,160.3,224.7,151L224.7,151z M76.8,158.4L59.7,197c2.6,0.3,5.3,0.4,8,0.4c2.2,0,4.4-0.1,6.5-0.3
			c5.7-0.3,11.1-1.5,16-3.5c5-2,9.8-4.7,14.4-7.9c3.5-2.6,6.7-5.4,9.6-8.5c-2.4-0.6-4.8-1.4-7.3-2.2c-8.2-2.9-16.8-7.5-25.6-13.5
			L76.8,158.4L76.8,158.4z M253,164.7l-10,22.4c3.6-2.8,6.9-5.7,10.1-8.6c2-1.8,5.6-5.6,8.9-9C259,168.1,256,166.5,253,164.7
			L253,164.7z M390,167.2C390,167.2,390,167.2,390,167.2C390,167.2,390,167.2,390,167.2L390,167.2z M390,167.2
			c-0.1,0.6-3.5,4.6-8.6,10c-4.5,4.8-10.3,10.5-16.3,15.6c-3.4,2.5-7,4.9-10.9,7c-4.2,2.3-8.6,3.5-13.1,3.5c-1.1,0-2.2-0.1-3.3-0.2
			c-2.8-0.3-5.3-1.3-7.5-2.8c-2.2-1.5-4-3.6-5.2-6.2c-1.4-2.9-2-6.1-1.8-9.5c0-0.2,0-0.3,0-0.5c-2,2.4-4.1,4.8-6.3,7
			c-2.5,2.6-5.2,5.2-8.1,7.5c-1.9,1.5-3.8,2.9-5.7,4.2c-2,1.4-4.3,2.3-6.8,2.6c-0.4,0-0.8,0.1-1.2,0.1c-1.5,0-2.8-0.3-4-0.9
			c-1.4-0.7-2.5-1.8-3.4-3.2c-0.8-1.3-1.4-2.8-1.6-4.4c-0.3-1.6-0.3-3.2-0.1-4.7c0.7-4.1,2.1-8,4.2-11.7c0.5-0.8,1-1.6,1.4-2.4
			c-7.4-0.9-14.8-2.7-22.2-5.6l-4.7,5c-2.2,2.2-4.3,4.2-6.4,6.2s-4.4,3.9-6.7,5.7c-1.5,1.3-3,2.5-4.5,3.6s-3,2.2-4.5,3.3l-5.5,3.7
			c-0.3,0.2-0.8,0.8-1.4,2.2l-4.1,9.3c7.6,4.8,16.7,8.8,27.4,11.9c14.1,4.2,29.1,6.3,44.4,6.3c26.2,0,47.3-5.6,62.6-16.7
			c2.5-1.8,4.8-3.8,6.9-5.8c0.2-0.2,0.5-0.4,0.7-0.7c0.3-0.3,0.5-0.5,0.8-0.8c0.5-0.5,1-1.1,1.5-1.6c0.2-0.2,0.5-0.5,0.7-0.7
			c0.5-0.5,0.9-1.1,1.3-1.6c0.2-0.2,0.4-0.4,0.6-0.7c0,0,0-0.1,0.1-0.1c0.6-0.8,1.2-1.6,1.8-2.5c0.2-0.3,0.3-0.5,0.5-0.8
			c0.4-0.6,0.7-1.1,1.1-1.7c0,0,0,0,0-0.1c0.2-0.3,0.4-0.6,0.6-1c0.3-0.6,0.7-1.2,1-1.8c0.2-0.3,0.3-0.6,0.5-1
			c0.3-0.7,0.6-1.3,0.9-2c0.1-0.3,0.2-0.5,0.3-0.8c0.4-0.9,0.8-1.9,1.1-2.8c0.1-0.2,0.1-0.4,0.2-0.6c0.3-0.8,0.5-1.6,0.8-2.4
			c0.1-0.3,0.2-0.7,0.3-1c0.2-0.7,0.4-1.4,0.5-2c0.1-0.4,0.2-0.7,0.3-1.1c0.2-0.7,0.3-1.4,0.4-2.1c0.1-0.3,0.1-0.7,0.2-1
			c0.1-0.9,0.3-1.8,0.4-2.8c0-0.2,0-0.3,0.1-0.5c0.1-1.1,0.2-2.2,0.3-3.3c0-0.3,0-0.6,0-0.9C390,168.3,390,167.7,390,167.2
			L390,167.2z M144.5,175.4c-4.4,2.5-9.6,3.7-15.5,3.7c-2,0-4.1-0.2-6.3-0.4c-0.9,1-1.7,2-2.6,3c-4.9,5.1-10.3,9.7-16.1,13.5
			c-6.2,3.8-12.9,6.5-19.9,8c-5.2,1.1-10.6,1.7-15.9,1.7c-1.8,0-3.6-0.1-5.4-0.2c-2.1-0.2-4.2-0.4-6.2-0.7l-0.4,0.8l2.6,2.2
			c8.8,7.5,19.9,13.3,32.9,17.3c12.8,4,26.3,6,40.1,6c19.5,0,36.8-4.7,51.4-13.9c6.4-4,12.1-8.9,17.2-14.5c-1-0.6-1.9-1.3-2.7-2.2
			c-2.1-2.1-3.4-4.6-3.8-7.5c-0.4-2.3-0.4-4.6-0.3-6.9c-1.8,1.7-3.7,3.5-5.6,5.3c-4,3.3-8.7,6.4-13.8,9.3c-4.2,2.3-8.7,3.5-13.2,3.5
			c-1.1,0-2.1-0.1-3.2-0.2c-2.8-0.3-5.3-1.3-7.5-2.8c-2.2-1.5-4-3.6-5.2-6.2c-1.4-2.9-2-6.1-1.8-9.5
			C143.5,181.5,143.9,178.4,144.5,175.4L144.5,175.4z M320.3,176.3c-3.7,1.4-9.7,2.6-19.3,2.6c-0.2,0-0.5,0-0.7,0
			c-0.9,1.4-1.7,2.9-2.6,4.4c-1.8,3-3.1,6.3-3.9,9.6c-0.1,0.8-0.2,2-0.1,3.4c0.1,1,0.5,1.6,1.4,1.8c0.3,0.1,0.5,0.2,0.8,0.2
			c0.4,0,0.7-0.1,1.1-0.4c0.9-0.5,1.7-0.9,2.4-1.2c2.5-1.5,4.9-3.4,7-5.5c2.2-2.1,4.3-4.4,6.4-6.6L320.3,176.3L320.3,176.3z"/>
	</g>
</g>
<g id="logo--degres">
	<path d="M137.7,155c-0.4,0.1-0.8,0.2-1.2,0.2c-0.5,0.1-0.9,0.2-1.4,0.2c-0.3,0.1-0.7,0.1-1,0.1c-1.2,0.2-2.3,0.3-3.5,0.4
		c-0.4,0-0.8,0.1-1.3,0.1c-0.2,0-0.4,0-0.6,0l0,0c-2.6,5.2-5.7,10.2-9.2,14.8c-1.6,2.2-3.5,4.2-5.3,6.2c-3,3.1-6.2,6-9.6,8.5
		c-4.6,3.2-9.4,5.9-14.4,7.9c-4.9,2-10.3,3.2-16,3.5c-4.8,0.5-9.7,0.4-14.5-0.1c-1.4-0.2-2.8-0.4-4.1-0.6
		c-5.8-1.1-11.6-2.5-17.3-4.3c3.1-5.1,5.8-10.6,8-16.2c2.4-6,4.8-11.9,7.1-17.7c3-7.9,6-15.7,9-23.3c1.6-4,3.2-8,4.8-12
		c1.5-3.7,3.1-7.4,4.6-11c2.6-6.3,5.8-12.9,9.4-19.7c1.3-2.6,2.8-5.1,4.3-7.4c1.6-2.3,3.2-4.6,4.9-6.6l2.6-2.4
		c0.7-0.9,0.9-1.9,0.7-3.1s-1-2.1-2-2.6c-1.7-0.8-3.4-0.5-4.8,1c-1.1,1.1-2,2.1-2.9,3c-2,2.3-3.9,4.9-5.6,7.5
		c-1.7,2.7-3.2,5.4-4.5,8.2c-4,7.4-7.6,15-10.7,22.7c-0.2,0.4-0.3,0.8-0.5,1.2c-3,7.2-5.9,14.6-8.7,22c-3,7.8-6,15.6-9,23.3
		c-3,7.6-6.3,15.3-9.9,22.8c-0.9,1.4-1.6,2.8-2.3,4.2c-0.6,1.2-1.3,2.5-2,3.7l0,0c-0.6-0.2-1-0.4-1.4-0.6l-3.1-1.3l-6-1.7
		c-1.5-0.3-3-0.7-4.6-1c-1.7-0.4-3.4-0.4-5,0c-3.4,0.5-6.2,2.3-8.4,5.3c-1.8,2.3-2.6,5-2.2,7.8s1.9,5.1,4.4,6.7
		c2.6,1.8,5.4,2.7,8.4,2.7c0.3,0,0.5,0,0.8,0c3.1-0.2,6.2-0.8,9.1-1.8c1.9-0.7,3.7-1.4,5.3-2.3c1.8-0.9,3.4-2.2,4.7-3.9l1-1l7,2.2
		c3.5,1,7.1,1.8,10.7,2.5c1.6,0.3,3.3,0.6,5,0.8c2,0.3,4.1,0.5,6.2,0.7c7.2,0.5,14.4,0,21.3-1.5c7-1.5,13.7-4.2,19.9-8
		c5.8-3.8,11.3-8.3,16.1-13.5c0.9-1,1.8-2,2.6-3c3.7-4.3,7.1-8.9,10-13.8C134.5,161.8,136.2,158.5,137.7,155L137.7,155z M24.7,197
		c-1.7,0.8-3.7,1.5-5.8,2.1c-2,0.6-4.2,0.9-6.3,0.7c-1.1-0.1-2.2-0.5-3.5-1c-1-0.4-1.5-1.1-1.7-2.1c-0.1-0.7,0.1-1.3,0.5-1.9
		c0.6-0.7,1.2-1.3,1.9-1.7c1.1-0.5,2.1-0.7,3.2-0.7c0.2,0,0.5,0,0.7,0c2.3,0.3,4.5,0.8,6.8,1.6c1.8,0.6,3.6,1.2,5.5,1.8
		C25.8,196.2,25.3,196.5,24.7,197z M355.9,127.3h0.4h0.7c0.6,0,1.1-0.1,1.6-0.2s1-0.2,1.4-0.3l13.7-1.6l1.8-0.2
		c1.5-0.3,2.6-1.2,3.2-2.7l0.1-0.2c0.3-1.8-0.3-3.2-1.6-4c-0.9-0.6-1.8-0.8-2.7-0.7l-0.8,0.2c-1.3,0.1-2.6,0.3-3.8,0.5
		c-1.2,0.2-2.6,0.4-3.9,0.6c-0.1,0-0.3,0-0.4,0c-1.4,0.1-2.7,0.2-4,0.3c-1.4,0.1-2.9,0.3-4.3,0.6l-1.6,0.3c-0.9,0-2.2,0.4-3.2,2.1
		c-0.8,1.4-0.6,2.9,0.7,4.2C354.2,127,355.2,127.3,355.9,127.3z M30,98.1c0.8,2,2.3,3.1,4.4,3.3c2.1,0,3.5-1.3,4-3.7
		c0-1.1-0.3-2-1-2.5c-0.3-0.2-0.4-0.5-0.6-0.8c-0.4-1.1-0.5-2.2-0.2-3.3c0.3-1.3,0.7-2.5,0.9-3.5c1.6-3.3,4.1-6.4,7.4-9.3
		c3.9-3.2,8.3-5.5,13-7.1c1.5-0.5,3-0.9,4.5-1.2c6.5-1.4,13.1-2.2,19.5-2.3c6.2-0.1,12.4,0.4,18.4,1.6s11.6,3.5,16.8,6.9
		c0.3,0.2,0.5,0.4,0.7,0.6c4.8,3.4,9,7.7,12.2,12.7c3.1,4.9,5.3,10.1,6.7,15.7c0.6,0,1.1,0.1,1.7,0.1c2.1,0,4-0.2,5.9-0.7
		c-0.5-2.3-1-4.5-1.7-6.7C140.5,91,136.9,84.7,132,79c-3.5-3.9-7.5-7.2-11.9-9.9c-0.5-0.3-1-0.7-1.6-1c-5-2.9-10.5-5.1-16.3-6.4
		c-4.5-0.8-9.1-1.3-13.7-1.5s-9.3-0.1-13.9,0.2l0,0c-5,0.4-10.1,1.3-15.1,2.6c-1.3,0.3-2.6,0.7-3.9,1.1c-6.3,2-12,5.2-16.9,9.6
		c-3.6,3.4-6.2,7-7.9,10.7c-1.4,2.9-2,5.9-1.8,8.8C29,94.7,29.3,96.3,30,98.1z M414.9,132.4c-1.7-1.3-3.6-1.1-5.1,0.6l-3,3.4
		c-3.8,4.3-7.6,8.6-11.2,13c-1.1,1.3-3.4,3.9-6.1,7.1c-6.8,7.8-16.5,18.8-17.4,19.8c-1.4,1.5-2.8,3-4.3,4.3c-2.4,2.2-5,4.4-7.7,6.5
		c-2.6,2-5.3,3.9-8,5.4c-2.1,1-4.4,1.8-6.6,2.5s-4.4,0.9-6.7,0.6c-1.9,0-3.8-0.7-5.5-2.1c-0.9-1-1.5-2.2-1.8-3.5
		c-0.3-1.4-0.6-2.8-0.7-4c0-3.6,0.7-7.9,1.9-12c2.1-0.7,4.3-1.3,4.4-1.3c1-0.3,1.9-0.6,2.9-0.8c1-0.3,2-0.5,3-0.9
		c3.2-1,6.3-2.1,9.3-3.4c3-1.2,6-2.8,8.9-4.7c1.7-1.1,3.4-2.5,5.2-4c1.8-1.5,3.4-3.3,4.7-5.1c1.3-1.9,2.3-3.9,3-5.9
		c0.7-2.2,0.7-4.5,0-7.1c-1.1-3.3-3.3-5.4-6.5-6.4c-3-0.9-6.1-1.2-9.1-0.6c-2.8,0.5-5.4,1.6-7.8,3.1c-2.3,1.5-4.6,3.2-6.6,5
		c-4.9,4.3-9,9.5-12.4,15.3c-0.8,1.4-1.5,2.7-2.2,4.1c-1.4,2.8-2.6,5.7-3.5,8.6l-5.8,6.4l-7.5,8.3c-2.1,2.3-4.3,4.5-6.4,6.6
		s-4.5,3.9-7,5.5c-0.7,0.3-1.5,0.7-2.4,1.2c-0.7,0.4-1.2,0.4-1.9,0.2c-0.9-0.2-1.3-0.8-1.4-1.8c-0.1-1.4,0-2.6,0.1-3.4
		c0.8-3.3,2.1-6.6,3.9-9.6c0.9-1.5,1.7-2.9,2.6-4.4c1-1.6,1.9-3.2,2.9-4.7l3.5-5.4c1.2-1.8,2.3-3.8,3.2-5.7c2-3.4,3.4-6.8,4.1-10.2
		c0.4-1.8,0.2-3.6-0.6-5.3c-0.8-1.7-2.2-3-4.2-3.7c-0.4-0.2-0.9-0.3-1.3-0.5c-1.2-0.4-2.5-0.5-3.8-0.4c-1.5,0.2-3.1,0.2-4.6,0
		c-0.2,0-0.4-0.1-0.5-0.1l0.1-0.4v-0.2c0-0.4,0.1-0.7,0.2-1c0.2-0.4,0.3-0.9,0.5-1.4c0.3-0.8,0.7-1.5,1.2-2.3
		c0.6-0.9,0.9-1.9,1.1-2.9c0.2-1.8-0.6-3.1-2.3-3.9c-1.8-0.8-3.3-0.3-4.4,1.1l-3.8,4.2l-5.8,7l-2.2,2.6c-2.3,2.8-4.7,5.5-7.1,8.1
		s-4.8,5.3-7.3,7.9c-0.1,0.1-0.6,0.7-1.5,1.5c-1.4,1.5-3.5,3.7-5.8,6.1c-3.3,3.5-7,7.2-8.9,9c-3.2,2.9-6.5,5.8-10,8.5l10-22.4
		l9.6-21.7c0.3-0.8,0.8-1.7,1.3-2.7c0.7-1.3,0.9-2.5,0.7-3.5c-0.2-1.5-1.1-2.6-2.6-3c-1.1-0.3-2.1-0.6-3-0.8
		c-5.8-1-11.5-0.8-17.1,0.8c-5.4,1.5-10.6,3.7-15.5,6.6c-0.1,0.1-0.2,0.1-0.3,0.2c-4.9,3-9.5,6.6-13.6,10.8
		c-4.1,4.1-7.6,8.5-10.5,13c-0.4,0.6-0.7,1.2-1.1,1.8l-0.3,0.4l-4.5,5.4l-4.1,4.6c-1.4,1.5-2.8,3-4.3,4.3c-2.4,2.2-5,4.4-7.7,6.5
		c-2.6,2-5.3,3.9-8,5.4c-2.1,1-4.4,1.8-6.6,2.5c-2.2,0.7-4.4,0.9-6.7,0.6c-1.9,0-3.8-0.7-5.5-2.1c-0.9-1-1.5-2.2-1.8-3.5
		c-0.3-1.4-0.6-2.8-0.7-4c0-3.6,0.7-8.1,2-12.3c0.9-0.2,2.6-0.7,4.2-1.1c1.4-0.4,2.7-0.7,3.1-0.8c1-0.3,2-0.5,3-0.9
		c3.2-1,6.3-2.1,9.3-3.4c3-1.2,6-2.8,8.9-4.7c1.7-1.1,3.4-2.5,5.2-4s3.4-3.3,4.7-5.1c1.3-1.9,2.3-3.9,3-5.9c0.7-2.2,0.7-4.5,0-7.1
		c-1.1-3.3-3.3-5.4-6.5-6.4c-3.1-0.9-6.1-1.2-9.1-0.6c-2.8,0.5-5.4,1.6-7.8,3.1c-2.3,1.5-4.6,3.2-6.6,5c-1.4,1.2-2.7,2.5-4,3.9
		c-3.2,3.4-6,7.2-8.4,11.4c-3.4,5.8-5.8,12-7.3,18.3v0.1c-0.7,3-1.1,6.1-1.2,9.3c-0.2,3.4,0.4,6.6,1.8,9.5c1.2,2.6,3,4.7,5.2,6.2
		s4.7,2.4,7.5,2.8c1.1,0.1,2.1,0.2,3.2,0.2c4.5,0,9-1.2,13.2-3.5c5.1-2.8,9.7-5.9,13.8-9.3c2-1.8,3.9-3.6,5.6-5.3l0,0
		c-0.2,2.3-0.1,4.6,0.3,6.9c0.4,2.9,1.7,5.4,3.6,7.6c0.8,0.9,1.7,1.6,2.7,2.2c1.9,1.2,4.1,1.9,6.6,2c3.5,0.2,6.9-0.3,10-1.3
		c3.8-1.3,7.2-3.4,10.2-6c2.1-1.8,4.1-3.8,6-5.7l-1.4,3.4l-0.5,1c-0.1,0.2-0.3,0.5-0.4,0.6L223,201c-3.3,2.1-6.6,4.3-10,6.5
		c-3.4,2.3-6.5,4.8-9.3,7.6c-4.3,4.1-8.4,8.7-12.1,13.7c-3.7,5-6.5,10.5-8.4,16.3c-0.8,2.3-1.5,4.7-1.9,7.1s-0.5,4.8-0.1,7.2
		c0.4,3.5,1.5,6.6,3.6,9.3c1.8,2.4,4.3,3.6,7.6,3.6c0.6,0,1.3,0,1.9-0.1c2.1-0.4,4.1-1.2,5.8-2.4c1.6-1.2,3.1-2.6,4.6-4.1
		c1.8-2.3,3.5-4.7,4.9-7.1s2.8-4.9,4.1-7.3c3-5.6,5.8-11.4,8.3-17.1s5.1-11.5,7.7-17.3l2.1-4.8l4.1-9.3c0.5-1.4,1.1-2,1.4-2.2
		l5.5-3.7c1.5-1.1,3-2.2,4.5-3.3s3.1-2.3,4.5-3.6c2.3-1.8,4.6-3.7,6.7-5.7s4.2-4,6.4-6.2l4.7-5l6.6-7.1c2.8-3.3,5.7-6.6,8.6-9.7
		c2.6-2.8,5.1-5.8,7.6-8.8c0.8,1.3,1.8,2.1,3,2.5c1.5,0.5,3.1,0.9,4.9,1c0.7,0,2,0,4-0.1c0.2,0,0.3,0,0.5,0c1.5,0,1.7,0.3,1.7,0.2
		c0.1,1.3-0.2,2.7-0.9,4.1l-2.2,4.4c-1.2,2-2.3,3.9-3.4,5.7s-2.2,3.6-3.3,5.4c-1.7,2.5-3.3,5.2-4.9,8c-0.5,0.8-1,1.6-1.4,2.4
		c-2.1,3.7-3.5,7.6-4.2,11.7c-0.2,1.6-0.1,3.2,0.1,4.7c0.3,1.6,0.8,3.1,1.6,4.4c0.8,1.4,2,2.5,3.4,3.2s3.1,1,5.2,0.8
		c2.5-0.4,4.8-1.2,6.8-2.6c1.9-1.3,3.8-2.7,5.7-4.2c2.9-2.3,5.6-4.8,8.1-7.5c2.1-2.3,4.2-4.6,6.3-7c0,0.2,0,0.3,0,0.5
		c-0.2,3.4,0.4,6.6,1.8,9.5c1.2,2.6,3,4.7,5.2,6.2s4.7,2.4,7.5,2.8c5.7,0.7,11.2-0.4,16.4-3.3c3.9-2.1,7.5-4.5,10.9-7
		c6.1-5.1,11.8-10.9,16.3-15.6c5.2-5.5,8.6-9.6,8.7-9.8c0,0,0,0,0-0.1c5-5.6,10.5-11.9,13.8-15.7c-0.1,3.1-0.1,6.3,0.2,9.3
		c0.3,4,0.5,8,0.5,11.9c0,2.9-0.1,5.9-0.4,8.8c-0.2,2.9-1.1,10.3-4.9,13.9c-1.7,1.5-4.9,2.7-7.1,2.8c-4.2,0.1-7.4-0.8-10-2
		c0,0,0,0,0-0.1c0,0,0,0,0,0.1l0,0c-0.4,0.6-0.7,1.2-1.1,1.7c-0.2,0.3-0.3,0.5-0.5,0.8c-0.6,0.8-1.2,1.7-1.8,2.5c0,0,0,0.1-0.1,0.1
		c-0.2,0.2-0.4,0.4-0.6,0.7c-0.4,0.5-0.9,1.1-1.3,1.6c0.5-0.5,0.9-1.1,1.4-1.6c2.4,1.1,4.9,2,7.4,2.6c2.9,0.7,5.4,1,8.5,1
		c11.2-0.7,14.7-11.3,14.7-11.3c1.2-2.6,2-5.3,2.3-8.2c0.5-3.7,0.8-7.4,0.8-10.8c0.2-4.1,0.1-8.3-0.3-12.5c-0.3-4-0.4-8.1-0.3-12.2
		c0.2-1.8,0.3-3.5,0.5-5.2c0.2-1.5,0.5-3,1.2-4.4c0.3-0.7,0.7-1.2,1.2-1.7c0.8-0.7,1.4-1.5,1.7-2.4
		C417.1,135.4,416.6,133.7,414.9,132.4z M347.1,149.4c1.8-1.9,3.9-3.7,6.2-5.4c2.2-1.6,4.7-2.6,7.4-2.9c1.6-0.3,3.3-0.1,4.8,0.4
		c0.9,0.3,1.8,1,1.5,3.3c-0.5,2.3-1.8,4.5-4,6.7c-3.5,3.7-7.9,6.6-13,8.6c-4.4,1.8-8.9,3.4-13.3,4.6
		C339.7,158.9,343.2,153.8,347.1,149.4z M167.1,149.4c1.8-1.9,3.9-3.7,6.2-5.4c2.2-1.6,4.7-2.6,7.4-2.9h0.1c0.5-0.1,1.1-0.1,1.6-0.1
		c1.1,0,2.2,0.2,3.2,0.6c0.9,0.3,1.8,1,1.5,3.3c-0.5,2.3-1.8,4.5-4,6.7c-3.5,3.7-7.9,6.6-13,8.6c-4.4,1.8-8.9,3.4-13.3,4.6
		C159.7,158.9,163.2,153.8,167.1,149.4z M220.7,218.1L220.7,218.1c-1.8,4.1-3.6,8.1-5.4,12.1c-1.7,3.9-3.6,7.9-5.6,11.8
		c-1.3,2.9-2.8,5.9-4.3,8.8c-1.6,2.9-3.3,5.7-5.3,8.3c-0.4,0.7-1.1,1.5-1.8,2.3c-0.8,0.8-1.6,1.5-2.5,2.1c-0.8,0.6-1.7,1-2.5,1.2
		c-0.7,0.2-1.4,0-2.2-0.5c-1.1-0.7-1.8-1.7-2-3.2c-0.3-1.6-0.4-3-0.2-4.4c0-1,0-1.9,0.1-2.7c0.1-0.9,0.2-1.7,0.4-2.5
		c0.8-3.8,2.2-7.6,4.1-11.2c2-3.6,4.2-7.1,6.6-10.3c1.8-2.1,3.7-4.2,5.6-6.1s3.9-3.8,6-5.6c2.6-2.3,5.3-4.3,8-6.1
		c1.8-1.2,3.6-2.4,5.5-3.6L220.7,218.1z M242,166.7c-1.8,2.8-3.6,5.5-5.3,8s-3.6,5-5.8,7.4l0,0c-1.8,2.1-3.7,4.2-5.7,6.1
		c-1.9,1.9-4.1,3.6-6.3,5c-2.1,1.3-4,2.1-5.7,2.6c-1.3,0.3-2.7,0.6-4.2,0.7c-1.4,0.1-2.7,0-3.8-0.4l0,0c-1.9-0.9-3-2.4-3.6-4.7
		c-0.6-2.5-0.6-5,0-7.7s1.5-5.2,2.4-7.4c1.8-3.7,3.9-7.2,6.4-10.4s5.1-6.3,7.9-9c2.1-2,4.3-4,6.6-5.8c0.4-0.3,0.8-0.7,1.2-1
		c2.8-2.1,5.7-4,8.8-5.6c3.4-1.8,7-3.1,10.8-3.9c2.1-0.4,4.2-0.7,6.3-0.7c1.2,0,2.4,0.1,3.6,0.2c-2,4.3-4,8.6-6.2,12.8
		C247.1,157.6,244.6,162.2,242,166.7z M390.2,167.4C390.2,167.4,390.2,167.5,390.2,167.4c0,0.6,0,1.2-0.1,1.8
		C390.2,168.6,390.2,168,390.2,167.4z M373.3,207.6c0.2-0.2,0.4-0.4,0.7-0.7C373.7,207.2,373.5,207.4,373.3,207.6L373.3,207.6z"/>
</g>
</svg>
